<svg width="58" height="58" viewBox="0 0 58 58" fill="none" xmlns="http://www.w3.org/2000/svg">
<path fill-rule="evenodd" clip-rule="evenodd" d="M34.4514 18.3772C34.4467 18.2691 34.4187 18.1633 34.3693 18.067C34.3198 17.9708 34.2502 17.8864 34.1651 17.8196C34.08 17.7528 33.9814 17.7052 33.8762 17.6801C33.7709 17.655 33.6615 17.653 33.5554 17.6742C33.0554 17.7742 31.4234 18.1802 30.1354 19.4682C29.4774 20.1262 29.1134 20.9562 28.9154 21.7122C28.8205 22.0803 28.7556 22.4555 28.7214 22.8342C28.6405 22.7992 28.5595 22.7645 28.4784 22.7302C27.7854 22.4342 26.8884 22.0902 25.8684 22.0902C24.7764 22.0902 23.2264 22.5342 21.9464 23.7902C20.6484 25.0642 19.6914 27.1082 19.6914 30.1902C19.6914 31.9222 20.5574 34.4402 21.7244 36.4852C22.3144 37.5182 23.0094 38.4802 23.7594 39.1892C24.4884 39.8772 25.3764 40.4272 26.3444 40.4022C27.0644 40.3992 27.7944 40.1162 28.3614 39.8962L28.4114 39.8762C29.0654 39.6232 29.5314 39.4522 29.9224 39.4522C30.2964 39.4522 30.7664 39.6232 31.4304 39.8782L31.4794 39.8962C32.0554 40.1172 32.7984 40.4022 33.5114 40.4022C34.0504 40.4022 34.6734 40.1142 35.2194 39.7752C35.8756 39.3577 36.4787 38.862 37.0154 38.2992C38.1524 37.1172 39.2324 35.4282 39.1904 33.6202C39.1872 33.4813 39.1454 33.3461 39.0699 33.2295C38.9943 33.113 38.8879 33.0197 38.7624 32.9602C38.2339 32.6913 37.762 32.3232 37.3724 31.8762C36.8994 31.3332 36.5504 30.6642 36.5284 29.8882C36.5044 28.9089 36.7401 27.9408 37.2114 27.0822C37.6334 26.3122 38.1114 25.8722 38.3334 25.7552C38.4283 25.7054 38.5114 25.6359 38.5772 25.5513C38.6429 25.4667 38.6898 25.369 38.7146 25.2648C38.7394 25.1605 38.7416 25.0522 38.7211 24.947C38.7005 24.8419 38.6577 24.7424 38.5954 24.6552C38.2534 24.1752 37.6034 23.5432 36.8374 23.0342C36.0804 22.5302 35.0934 22.0692 34.0834 22.0892C33.9064 22.0932 33.7334 22.1062 33.5634 22.1262C33.9334 21.5762 34.1494 20.8942 34.2754 20.2962C34.4094 19.6656 34.4688 19.0215 34.4524 18.3772M31.1974 20.5282C31.7384 19.9872 32.3744 19.6452 32.9014 19.4342C32.8777 19.6196 32.8467 19.8041 32.8084 19.9872C32.6774 20.6092 32.4714 21.1292 32.2184 21.4252C31.7384 21.9842 31.0944 22.5942 30.2304 22.8352C30.2584 22.5982 30.3024 22.3452 30.3684 22.0912C30.5234 21.4962 30.7884 20.9382 31.1974 20.5282ZM34.1144 23.5882C34.6794 23.5782 35.3564 23.8492 36.0084 24.2832C36.3524 24.5112 36.6564 24.7632 36.8984 24.9952C36.5414 25.3532 36.1904 25.8252 35.8974 26.3612C35.2979 27.4536 34.9987 28.6854 35.0304 29.9312C35.0644 31.1512 35.6144 32.1412 36.2424 32.8612C36.7024 33.3882 37.2224 33.7952 37.6724 34.0712C37.5454 35.1662 36.8484 36.3112 35.9354 37.2592C35.4849 37.7323 34.9789 38.1493 34.4284 38.5012C33.9204 38.8172 33.6044 38.9022 33.5124 38.9022C33.1124 38.9022 32.6244 38.7282 31.9684 38.4772L31.8884 38.4472C31.3244 38.2302 30.6024 37.9532 29.9234 37.9532C29.2234 37.9532 28.5054 38.2322 27.9434 38.4502L27.8714 38.4782C27.2234 38.7282 26.7444 38.9022 26.3344 38.9022H26.3114C25.9354 38.9142 25.4174 38.6902 24.7914 38.0992C24.1834 37.5242 23.5744 36.6962 23.0284 35.7412C21.9244 33.8072 21.1924 31.5542 21.1924 30.1912C21.1924 27.4342 22.0374 25.8032 22.9974 24.8612C23.9754 23.9012 25.1384 23.5892 25.8704 23.5892C26.5654 23.5892 27.2234 23.8242 27.8904 24.1092L28.1604 24.2262C28.3984 24.3292 28.6454 24.4362 28.8694 24.5212C29.1814 24.6382 29.5484 24.7502 29.9234 24.7502C30.2984 24.7502 30.6694 24.6452 30.9934 24.5302C31.2344 24.4452 31.4984 24.3362 31.7534 24.2312L32.0054 24.1272C32.6984 23.8452 33.3874 23.6042 34.1144 23.5892" fill="white"/>
</svg>
