<svg width="18" height="18" viewBox="0 0 18 18" fill="none" xmlns="http://www.w3.org/2000/svg">
<path d="M12.0135 13.8443C11.885 13.7156 11.8039 13.5396 11.8041 13.3366L11.8102 5.83907L4.31265 5.83297C3.92018 5.83265 3.59564 5.50759 3.59596 5.11511C3.59628 4.72264 3.92134 4.3981 4.31382 4.39842L12.5286 4.4051C12.9211 4.40542 13.2456 4.73049 13.2453 5.12296L13.2386 13.3378C13.2383 13.7303 12.9133 14.0548 12.5208 14.0545C12.3245 14.0611 12.1419 13.973 12.0135 13.8443Z" fill="white"/>
<path d="M0.50666 17.1236C0.229449 16.8459 0.229823 16.3858 0.507485 16.1086L11.9052 4.72941C12.1828 4.4522 12.643 4.45258 12.9202 4.73024C13.1974 5.0079 13.197 5.46804 12.9194 5.74525L1.52167 17.1244C1.24401 17.4016 0.78387 17.4012 0.50666 17.1236Z" fill="white"/>
</svg>
