<svg width="11" height="11" viewBox="0 0 11 11" fill="none" xmlns="http://www.w3.org/2000/svg">
<g clip-path="url(#clip0_155_1489)">
<path d="M5.5 0.6875L6.57708 1.5125L7.90625 1.32917L8.41042 2.58958L9.67083 3.09375L9.4875 4.42292L10.3125 5.5L9.4875 6.57708L9.67083 7.90625L8.41042 8.41042L7.90625 9.67083L6.57708 9.4875L5.5 10.3125L4.42292 9.4875L3.09375 9.67083L2.58958 8.41042L1.32917 7.90625L1.5125 6.57708L0.6875 5.5L1.5125 4.42292L1.32917 3.09375L2.58958 2.58958L3.09375 1.32917L4.42292 1.5125L5.5 0.6875Z" fill="#8BC34A"/>
<path d="M7.92912 3.34583L4.81245 6.4625L3.52912 5.17917L2.88745 5.82083L4.81245 7.74583L8.57078 3.9875L7.92912 3.34583Z" fill="#CCFF90"/>
</g>
<defs>
<clipPath id="clip0_155_1489">
<rect width="11" height="11" fill="white"/>
</clipPath>
</defs>
</svg>
