<svg width="188" height="187" viewBox="0 0 188 187" fill="none" xmlns="http://www.w3.org/2000/svg">
<path d="M51.9189 23.8261C51.948 25.4378 51.4952 27.0219 50.6181 28.3776C49.7409 29.7332 48.4789 30.7994 46.9919 31.4409C45.5049 32.0824 43.86 32.2704 42.2656 31.9811C40.6712 31.6917 39.1991 30.938 38.036 29.8156C36.8729 28.6931 36.0711 27.2524 35.7323 25.676C35.3934 24.0997 35.5328 22.4587 36.1327 20.9611C36.7326 19.4635 37.7661 18.1767 39.1021 17.2639C40.438 16.3511 42.0164 15.8532 43.637 15.8336C45.7998 15.8054 47.8855 16.6306 49.4377 18.1285C50.9899 19.6265 51.8821 21.6751 51.9189 23.8261Z" fill="#F5F5F5"/>
<path d="M49.9691 23.8506C49.9904 25.0782 49.6448 26.2845 48.9761 27.3167C48.3074 28.3488 47.3456 29.1603 46.2128 29.6484C45.08 30.1364 43.827 30.2789 42.6127 30.058C41.3984 29.837 40.2774 29.2624 39.3919 28.4071C38.5063 27.5518 37.8961 26.4542 37.6384 25.2535C37.3807 24.0528 37.4873 22.8029 37.9445 21.6624C38.4018 20.5219 39.1892 19.542 40.2069 18.8469C41.2246 18.1518 42.4268 17.7729 43.6612 17.7581C45.3097 17.7354 46.8998 18.3642 48.0824 19.5064C49.2651 20.6487 49.9436 22.2111 49.9691 23.8506Z" fill="#EBEBEB"/>
<path d="M49.9669 23.6703C49.8842 23.432 49.8253 23.1862 49.7912 22.9364C49.6445 22.2708 49.3943 21.6319 49.0495 21.043C48.81 20.6419 48.5274 20.2679 48.2066 19.9275C47.84 19.5395 47.424 19.2008 46.9692 18.9199C46.7231 18.7682 46.4667 18.6337 46.2019 18.5174C45.6401 18.2694 45.0445 18.1057 44.4344 18.0317C44.1149 17.9969 43.7931 17.9862 43.4719 17.9997C43.1506 18.0156 42.8309 18.054 42.515 18.1147C42.21 18.1773 41.9105 18.2635 41.6191 18.3726C41.3354 18.4755 41.0609 18.6021 40.7987 18.7509C40.5421 18.8869 40.2966 19.0425 40.0645 19.2165C39.2564 19.8187 38.6094 20.6092 38.1804 21.5183C37.888 22.1332 37.6952 22.7902 37.6091 23.465C37.5982 23.7139 37.5616 23.961 37.4999 24.2024C37.4202 23.9546 37.3942 23.6928 37.4237 23.4342C37.4416 22.7224 37.5934 22.0202 37.8713 21.3639C38.0584 20.906 38.3015 20.4728 38.5951 20.0741C38.9347 19.6151 39.3354 19.204 39.7861 18.852C40.0315 18.6615 40.2903 18.4885 40.5603 18.3344C40.8438 18.1802 41.1391 18.0486 41.4434 17.9405C41.7588 17.8221 42.083 17.7282 42.4131 17.6597C42.7525 17.5881 43.0972 17.5444 43.4438 17.5289C43.7898 17.5139 44.1365 17.5268 44.4804 17.5674C44.815 17.6067 45.1461 17.6714 45.4708 17.7611C45.7824 17.8497 46.0868 17.9615 46.3816 18.0956C46.6646 18.2247 46.9374 18.3751 47.1976 18.5453C47.6791 18.8547 48.1158 19.2281 48.4955 19.6552C48.8222 20.0276 49.1043 20.4366 49.336 20.8738C49.6724 21.503 49.8869 22.1894 49.9683 22.8974C50.0258 23.1519 50.0254 23.416 49.9669 23.6703Z" fill="#E0E0E0"/>
<path d="M44.4886 27.6366L44.539 28.7032L43.5697 28.7154L43.5565 27.6667C42.6952 27.6624 41.8525 27.418 41.1239 26.9612L41.5866 25.7961C42.1533 26.1678 42.8079 26.3854 43.4854 26.4274L43.443 24.8196C42.3596 24.5866 41.1455 24.2633 41.1096 22.8837C41.0968 21.8644 41.8034 20.9649 43.3289 20.7506L43.3154 19.6798L44.2848 19.6676L44.298 20.72C44.9955 20.7317 45.6802 20.9085 46.2952 21.2359L45.8292 22.4305C45.3697 22.1797 44.8646 22.0222 44.3433 21.9671L44.3898 23.6079C45.4731 23.8298 46.6649 24.1534 46.7043 25.5147C46.7317 26.5227 46.0029 27.4115 44.4886 27.6366ZM43.4029 23.3995L43.3635 22.0309C42.8545 22.1625 42.6583 22.4483 42.6661 22.7758C42.6739 23.1032 42.9907 23.2796 43.4029 23.3995ZM45.1337 25.6779C45.1295 25.3431 44.8386 25.1664 44.4188 25.0318L44.4356 26.3639C44.9373 26.2435 45.1413 25.987 45.1337 25.6779Z" fill="#E0E0E0"/>
<path d="M31.2901 63.8694C31.4487 64.8493 31.3114 65.854 30.8956 66.7563C30.4798 67.6586 29.8043 68.418 28.9544 68.9384C28.1046 69.4587 27.1186 69.7166 26.1214 69.6794C25.1242 69.6422 24.1606 69.3116 23.3525 68.7294C22.5443 68.1473 21.928 67.3397 21.5816 66.4089C21.2352 65.4782 21.1742 64.4661 21.4064 63.5008C21.6386 62.5355 22.1534 61.6603 22.8859 60.9861C23.6183 60.3119 24.5353 59.869 25.5209 59.7133C26.8401 59.504 28.1888 59.8242 29.2706 60.6035C30.3525 61.3828 31.0788 62.5575 31.2901 63.8694Z" fill="#F5F5F5"/>
<path d="M30.101 64.0573C30.2217 64.8043 30.1169 65.57 29.8 66.2578C29.483 66.9455 28.968 67.5243 28.3202 67.9209C27.6724 68.3174 26.9209 68.514 26.1608 68.4856C25.4007 68.4573 24.6662 68.2053 24.0502 67.7616C23.4342 67.3178 22.9644 66.7023 22.7003 65.9929C22.4362 65.2835 22.3896 64.5121 22.5665 63.7762C22.7433 63.0404 23.1357 62.3733 23.6939 61.8593C24.252 61.3453 24.951 61.0075 25.7022 60.8887C26.2002 60.8095 26.7091 60.8285 27.1997 60.9449C27.6903 61.0612 28.1531 61.2725 28.5615 61.5668C28.97 61.861 29.3162 62.2324 29.5803 62.6597C29.8445 63.0871 30.0214 63.562 30.101 64.0573Z" fill="#EBEBEB"/>
<path d="M30.0809 63.9398C30.0095 63.7992 29.9519 63.652 29.9089 63.5003C29.7585 63.1053 29.5479 62.7355 29.2845 62.4041C29.1027 62.1835 28.898 61.9826 28.6739 61.8045C28.4148 61.6008 28.1303 61.4312 27.8275 61.2999C27.6649 61.2286 27.4972 61.1692 27.3258 61.1222C26.9639 61.0231 26.5892 60.9782 26.214 60.989C26.0169 60.9954 25.8205 61.0164 25.6265 61.0516C25.4328 61.0909 25.2419 61.1425 25.0548 61.206C24.874 61.2716 24.6982 61.35 24.5287 61.4408C24.3655 61.5284 24.2096 61.6288 24.0625 61.7411C23.9192 61.8474 23.7846 61.9648 23.6599 62.0921C23.4261 62.3249 23.2242 62.5873 23.0591 62.8725C22.9095 63.1209 22.7887 63.3854 22.699 63.6609C22.5771 64.0625 22.5175 64.4803 22.5222 64.8997C22.5422 65.056 22.5442 65.214 22.5281 65.3707C22.4583 65.2262 22.4197 65.0687 22.415 64.9084C22.3613 64.4722 22.3909 64.0298 22.5022 63.6045C22.58 63.3091 22.6919 63.0237 22.8356 62.7539C23.0017 62.4435 23.2097 62.1574 23.454 61.9033C23.5843 61.7668 23.7264 61.6419 23.8785 61.5299C24.0356 61.4065 24.2025 61.2961 24.3776 61.1998C24.559 61.0985 24.7485 61.0124 24.9442 60.9424C25.1442 60.8683 25.3502 60.8115 25.56 60.7727C25.7699 60.7342 25.9824 60.7119 26.1956 60.7059C26.4036 60.6981 26.6118 60.7091 26.8177 60.7385C27.016 60.7637 27.212 60.8043 27.4039 60.86C27.5876 60.9132 27.7666 60.9811 27.9393 61.063C28.5361 61.339 29.0513 61.7635 29.4349 62.2955C29.7013 62.6509 29.8984 63.0529 30.0159 63.4806C30.0683 63.6278 30.0904 63.784 30.0809 63.9398Z" fill="#E0E0E0"/>
<path d="M27.0904 66.8296L27.206 67.4833L26.6152 67.5864L26.5185 66.9583C25.9931 67.0314 25.4575 66.9565 24.9728 66.7422L25.1703 65.9705C25.5495 66.1481 25.9689 66.2241 26.3867 66.1908L26.2153 65.214C25.5339 65.1673 24.7668 65.0776 24.623 64.2366C24.5153 63.616 24.874 63.0043 25.7884 62.7499L25.6729 62.0999L26.2637 62.0005L26.3754 62.6394C26.8002 62.5886 27.231 62.64 27.6317 62.7892L27.4638 63.5605C27.1579 63.4486 26.8329 63.3977 26.5072 63.4106L26.6825 64.4058C27.3602 64.4488 28.1162 64.5386 28.2598 65.3649C28.3561 65.9636 27.9937 66.568 27.0904 66.8296ZM26.0526 64.3401L25.9093 63.5322C25.6074 63.6538 25.5136 63.8464 25.5456 64.041C25.5777 64.2357 25.7785 64.3141 26.0528 64.3511L26.0526 64.3401ZM27.3115 65.5792C27.2756 65.3736 27.0859 65.2913 26.8152 65.2469L26.9549 66.0548C27.2459 65.9518 27.3436 65.7776 27.3117 65.5903L27.3115 65.5792Z" fill="#E0E0E0"/>
<path d="M160.932 110.647L159.313 119.533L172.568 121.921L174.188 113.035L160.932 110.647Z" fill="#EBEBEB"/>
<path d="M174.216 113.155C174.17 113.191 174.121 113.224 174.069 113.252L173.643 113.504L172.056 114.426L166.791 117.436L166.747 117.459L166.713 117.422L166.653 117.335C165.083 115.514 163.65 113.906 162.621 112.715L161.397 111.295L161.07 110.906C161.03 110.863 160.995 110.817 160.964 110.767C161.01 110.804 161.051 110.846 161.088 110.891L161.429 111.254L162.672 112.641L166.729 117.235L166.808 117.326L166.734 117.326L172.018 114.356L173.624 113.468L174.061 113.234C174.11 113.202 174.161 113.176 174.216 113.155Z" fill="#E0E0E0"/>
<path d="M159.341 119.653C159.318 119.628 160.537 118.589 162.061 117.334C163.585 116.078 164.841 115.091 164.864 115.109C164.886 115.127 163.667 116.173 162.14 117.428C160.613 118.684 159.363 119.679 159.341 119.653Z" fill="#E0E0E0"/>
<path d="M169.287 115.789C169.32 115.789 170.081 117.163 170.995 118.889C171.908 120.614 172.633 122.044 172.596 122.044C172.559 122.045 171.802 120.674 170.888 118.949C169.975 117.223 169.257 115.804 169.287 115.789Z" fill="#E0E0E0"/>
<path d="M131.604 19.9608C131.554 19.7651 131.528 19.5639 131.526 19.3619C131.516 19.1149 131.486 18.8691 131.436 18.627C131.391 18.3011 131.324 17.9785 131.235 17.6616C131.014 16.7884 130.663 15.953 130.194 15.1831C129.581 14.1626 128.778 13.2672 127.829 12.5446C126.686 11.6666 125.352 11.0681 123.933 10.7976C122.308 10.4861 120.628 10.6114 119.068 11.1606C118.225 11.4486 117.432 11.8632 116.715 12.39C116.345 12.6586 115.993 12.9507 115.661 13.2644C115.331 13.5951 115.025 13.9482 114.745 14.3211C113.563 15.8805 112.913 17.7748 112.889 19.7276C112.866 21.6803 113.471 23.5893 114.615 25.1759C114.887 25.5599 115.184 25.925 115.506 26.2688C115.832 26.5902 116.178 26.8907 116.542 27.1685C117.245 27.7128 118.028 28.1461 118.864 28.4532C120.883 29.2071 123.103 29.2437 125.147 28.5567C127.191 27.8697 128.934 26.5014 130.08 24.6834C130.567 23.9243 130.939 23.0973 131.181 22.2295C131.278 21.915 131.353 21.5943 131.406 21.2698C131.458 21.0341 131.494 20.7951 131.512 20.5545C131.52 20.3525 131.551 20.1521 131.604 19.9571C131.628 20.1574 131.63 20.3597 131.612 20.5606C131.615 20.8074 131.596 21.054 131.554 21.2974C131.52 21.6309 131.459 21.9614 131.374 22.2859C131.16 23.1855 130.806 24.0466 130.326 24.8385C129.622 26.0083 128.674 27.0149 127.546 27.7907C126.419 28.5666 125.138 29.0938 123.789 29.3371C122.078 29.6437 120.317 29.4879 118.688 28.886C117.807 28.5664 116.98 28.1152 116.236 27.5477C115.851 27.2566 115.485 26.9416 115.14 26.6046C114.8 26.249 114.485 25.8705 114.197 25.4719C112.982 23.8006 112.339 21.7852 112.363 19.7229C112.387 17.6606 113.077 15.6604 114.331 14.0172C114.629 13.6242 114.953 13.2513 115.301 12.9009C115.653 12.5699 116.028 12.2628 116.422 11.9815C117.178 11.4306 118.015 10.9993 118.903 10.7026C120.436 10.1713 122.079 10.0343 123.679 10.3044C125.279 10.5745 126.784 11.2429 128.055 12.2474C129.023 13.0127 129.833 13.9574 130.44 15.0291C130.9 15.8277 131.233 16.6926 131.426 17.5929C131.505 17.9189 131.559 18.2505 131.587 18.5846C131.622 18.8281 131.635 19.0743 131.626 19.3201C131.643 19.5338 131.636 19.7487 131.604 19.9608Z" fill="#EBEBEB"/>
<path d="M129.632 14.0898C129.651 14.1153 129.483 14.2683 129.156 14.5153L128.552 14.9609C128.43 15.0433 128.306 15.1369 128.166 15.227L127.7 15.4758C126.016 16.459 124.094 16.9667 122.142 16.9442L121.298 16.918L120.486 16.7994C120.352 16.779 120.219 16.7659 120.089 16.7381L119.718 16.6434C119.469 16.5803 119.221 16.5245 118.975 16.4503C118.146 16.1854 117.348 15.8327 116.594 15.3983C115.312 14.6489 114.685 13.9502 114.725 13.9165C114.765 13.8829 115.472 14.4298 116.764 15.076C117.523 15.448 118.313 15.7534 119.125 15.9884C119.351 16.0481 119.589 16.0967 119.83 16.1525L120.201 16.2399L120.572 16.2904L121.347 16.3948L122.154 16.4177C124.023 16.432 125.869 15.9959 127.533 15.1466L128 14.9383C128.143 14.8593 128.275 14.7766 128.4 14.7088L129.043 14.3327C129.4 14.1552 129.61 14.0606 129.632 14.0898Z" fill="#EBEBEB"/>
<path d="M114.597 25.7503C114.574 25.7211 114.746 25.5718 115.072 25.3248L115.677 24.8645C115.798 24.782 115.923 24.6884 116.062 24.5983L116.525 24.3496C118.21 23.3657 120.133 22.8579 122.087 22.8812L122.931 22.9074L123.743 23.026C123.876 23.0464 124.01 23.0594 124.139 23.0835L124.511 23.1819C124.759 23.245 125.008 23.3008 125.253 23.3713C126.083 23.6447 126.881 24.0048 127.635 24.4455C128.913 25.1949 129.54 25.8936 129.504 25.9272C129.467 25.9608 128.757 25.414 127.469 24.7677C126.716 24.394 125.932 24.0862 125.126 23.8477C124.899 23.788 124.658 23.7395 124.421 23.6799L124.05 23.5962L123.679 23.5457L122.901 23.4414L122.097 23.4184C120.225 23.4041 118.376 23.8415 116.711 24.6932L116.24 24.9016C116.097 24.9807 115.968 25.0632 115.843 25.1311L115.2 25.5072C114.829 25.6848 114.619 25.7795 114.597 25.7503Z" fill="#EBEBEB"/>
<path d="M131.6 20.178C131.601 20.3215 127.347 20.3897 122.11 20.3267C116.874 20.2638 112.624 20.1185 112.625 19.9602C112.627 19.8019 116.874 19.7485 122.115 19.8115C127.355 19.8744 131.601 20.0344 131.6 20.178Z" fill="#EBEBEB"/>
<path d="M121.79 29.2812C121.646 29.2831 121.581 25.0552 121.642 19.8432C121.702 14.6311 121.871 10.4114 122.015 10.4316C122.16 10.4519 122.224 14.6577 122.164 19.8697C122.103 25.0818 121.934 29.2831 121.79 29.2812Z" fill="#EBEBEB"/>
<path d="M121.79 29.2665C121.757 29.3221 120.701 28.6288 119.475 27.0507C118.761 26.1196 118.179 25.0954 117.746 24.0067C117.215 22.6645 116.946 21.2341 116.953 19.7917C116.971 18.346 117.279 16.9184 117.858 15.5922C118.324 14.5192 118.934 13.5137 119.671 12.6031C120.928 11.0489 121.974 10.3659 122.011 10.4096C122.049 10.4533 121.115 11.2526 119.962 12.8239C119.292 13.7439 118.733 14.7391 118.297 15.7891C117.769 17.0631 117.488 18.4255 117.471 19.8036C117.464 21.1819 117.707 22.5502 118.188 23.8429C118.588 24.9022 119.119 25.908 119.768 26.8372C120.891 28.4277 121.841 29.2033 121.79 29.2665Z" fill="#EBEBEB"/>
<path d="M122.226 10.429C122.263 10.3733 123.315 11.063 124.541 12.6449C125.257 13.5741 125.842 14.5971 126.278 15.685C126.809 17.0284 127.078 18.4601 127.071 19.9037C127.054 21.3484 126.746 22.7752 126.165 24.0996C125.698 25.1732 125.089 26.1798 124.353 27.0924C123.095 28.6429 122.05 29.3295 122.016 29.2821C121.982 29.2347 122.908 28.4391 124.061 26.8679C124.735 25.9503 125.294 24.9545 125.726 23.9027C126.255 22.6275 126.535 21.2638 126.552 19.8845C126.559 18.5065 126.317 17.1385 125.839 15.8451C125.438 14.7856 124.906 13.7798 124.255 12.8509C123.136 11.253 122.175 10.4701 122.226 10.429Z" fill="#EBEBEB"/>
<path d="M31.5828 127.174L32.0396 126.131C32.4251 125.219 32.4308 124.192 32.0553 123.277C31.8694 122.823 31.5955 122.411 31.2492 122.063C30.903 121.715 30.4912 121.438 30.0374 121.248C29.5836 121.058 29.0967 120.959 28.6043 120.957C28.112 120.954 27.624 121.048 27.1681 121.233C26.2474 121.606 25.5136 122.328 25.1281 123.24L24.6493 124.299C24.1623 124.176 23.6471 124.23 23.1971 124.453C22.7472 124.675 22.3921 125.051 22.1965 125.511L19.5989 131.697C19.3848 132.205 19.381 132.777 19.5884 133.288C19.7958 133.798 20.1975 134.207 20.7063 134.425L27.1751 137.122C27.6876 137.337 28.2648 137.34 28.7798 137.131C29.2947 136.922 29.7054 136.519 29.9215 136.009L32.5301 129.827C32.7337 129.347 32.7493 128.808 32.574 128.318C32.3987 127.827 32.0452 127.419 31.5828 127.174ZM26.294 132.68L24.6051 131.965L25.3793 130.851C25.2407 130.657 25.1693 130.423 25.1756 130.185C25.1818 129.946 25.2655 129.716 25.4141 129.529C25.5627 129.342 25.7682 129.208 25.9998 129.147C26.2315 129.085 26.4769 129.1 26.6993 129.189C26.9217 129.278 27.1092 129.436 27.2337 129.64C27.3582 129.843 27.4131 130.082 27.3901 130.319C27.3671 130.556 27.2674 130.78 27.1061 130.956C26.9448 131.133 26.7304 131.252 26.495 131.297C26.4241 131.839 26.294 132.68 26.294 132.68ZM30.8424 126.852L25.4189 124.587L25.8722 123.555C26.1868 122.859 26.7623 122.313 27.476 122.033C28.1897 121.753 28.985 121.761 29.6924 122.056C30.3999 122.351 30.9634 122.909 31.2629 123.612C31.5624 124.314 31.5741 125.105 31.2956 125.816L30.8424 126.852Z" fill="#EBEBEB"/>
<path d="M161.975 58.4428C161.983 58.9617 161.835 59.4711 161.551 59.9065C161.267 60.342 160.86 60.6841 160.381 60.8894C159.902 61.0947 159.372 61.154 158.859 61.06C158.346 60.9659 157.872 60.7226 157.498 60.3608C157.124 59.999 156.866 59.5351 156.758 59.0276C156.649 58.5201 156.693 57.9918 156.886 57.5096C157.079 57.0275 157.412 56.613 157.841 56.3186C158.271 56.0243 158.779 55.8633 159.301 55.856C159.647 55.8512 159.991 55.9142 160.313 56.0416C160.635 56.169 160.928 56.3582 161.177 56.5984C161.425 56.8386 161.624 57.1251 161.761 57.4416C161.898 57.758 161.971 58.0982 161.975 58.4428Z" fill="#EBEBEB"/>
<path d="M169.009 54.276C169.651 52.9749 169.111 51.4029 167.803 50.7648C166.495 50.1267 164.914 50.6641 164.272 51.9652C163.63 53.2663 164.171 54.8383 165.479 55.4764C166.787 56.1145 168.367 55.577 169.009 54.276Z" fill="#EBEBEB"/>
<path d="M166.848 67.1016C168.305 67.0812 169.468 65.7863 169.446 64.2093C169.424 62.6323 168.225 61.3704 166.768 61.3908C165.311 61.4111 164.148 62.706 164.17 64.283C164.192 65.86 165.391 67.1219 166.848 67.1016Z" fill="#EBEBEB"/>
<path d="M166.026 63.9196C165.913 64.0866 164.147 63.1189 162.08 61.7611C160.013 60.4033 158.425 59.1609 158.534 58.9939C158.643 58.8269 160.394 59.7986 162.479 61.1525C164.565 62.5064 166.135 63.7526 166.026 63.9196Z" fill="#EBEBEB"/>
<path d="M166.099 52.9367C166.223 53.0934 164.884 54.3579 163.107 55.764C161.33 57.1701 159.807 58.1793 159.665 58.0154C159.522 57.8516 160.879 56.5943 162.656 55.1918C164.433 53.7894 165.975 52.7947 166.099 52.9367Z" fill="#EBEBEB"/>
<path d="M168.962 174.98C168.962 175.031 135.784 175.493 94.8689 176.007C53.9538 176.522 20.7669 176.895 20.7662 176.843C20.7656 176.792 53.9366 176.33 94.8665 175.816C135.796 175.301 168.961 174.924 168.962 174.98Z" fill="#263238"/>
<path d="M146.895 35.0564C146.929 35.0965 142.367 38.9409 136.709 43.6492C131.051 48.3575 126.432 52.1216 126.398 52.0816C126.365 52.0415 130.923 48.2009 136.585 43.4888C142.246 38.7768 146.857 35.0164 146.895 35.0564Z" fill="#263238"/>
<path d="M155.26 96.7397C155.242 96.7914 149.251 94.7395 141.881 92.164C134.511 89.5885 128.534 87.4554 128.567 87.4072C128.6 87.3589 134.576 89.4036 141.946 91.9829C149.316 94.5621 155.293 96.6914 155.26 96.7397Z" fill="#263238"/>
<path d="M31.1413 47.3321C31.1666 47.2839 37.6353 50.5627 45.5835 54.6803C53.5317 58.798 59.9643 62.1582 59.939 62.2027C59.9136 62.2471 53.4487 58.972 45.4968 54.8507C37.5448 50.7294 31.116 47.3765 31.1413 47.3321Z" fill="#263238"/>
<path d="M34.1442 101.928C34.1436 101.877 39.3792 99.7941 45.8749 97.276C52.3705 94.758 57.6589 92.7557 57.678 92.8033C57.6971 92.8509 52.4467 94.9337 45.9474 97.4554C39.4481 99.9772 34.1633 101.976 34.1442 101.928Z" fill="#263238"/>
<path d="M96.8971 112.198C90.5441 112.279 84.3099 110.484 78.9831 107.041C73.6562 103.597 69.4759 98.6595 66.9707 92.8526C64.4656 87.0456 63.7482 80.63 64.9093 74.417C66.0703 68.204 69.0576 62.4728 73.4935 57.948C77.9293 53.4233 83.6144 50.3082 89.8299 48.9969C96.0453 47.6856 102.512 48.2368 108.412 50.5809C114.312 52.925 119.38 56.9567 122.976 62.1661C126.571 67.3754 128.533 73.5286 128.613 79.8473C128.709 88.3167 125.425 96.479 119.479 102.544C113.533 108.609 105.412 112.081 96.8971 112.198ZM96.0984 48.6756C89.8183 48.7538 83.7024 50.6826 78.524 54.2179C73.3457 57.7533 69.3375 62.7364 67.0065 68.5372C64.6754 74.3379 64.1262 80.6957 65.4282 86.8064C66.7303 92.9171 69.8251 98.5063 74.3213 102.867C78.8175 107.228 84.5131 110.164 90.6879 111.305C96.8626 112.446 103.239 111.74 109.011 109.277C114.783 106.813 119.691 102.703 123.114 97.4651C126.537 92.2275 128.322 86.098 128.243 79.8519C128.13 71.4787 124.683 63.4923 118.656 57.6453C112.63 51.7983 104.517 48.5684 96.0982 48.6645L96.0984 48.6756Z" fill="#FF725E"/>
<path d="M137.094 79.2843C137.094 79.2843 137.091 79.0635 137.06 78.6296C137.057 78.4125 137.054 78.1439 137.024 77.8241C136.994 77.5043 137.015 77.1323 136.954 76.7209C136.894 76.3094 136.869 75.8313 136.822 75.313C136.775 74.7947 136.672 74.2329 136.586 73.6193C136.397 72.3999 136.113 71.0012 135.709 69.4496C135.246 67.724 134.668 66.0309 133.98 64.3815C133.171 62.4244 132.203 60.5361 131.085 58.7355C128.352 54.3364 124.804 50.4934 120.63 47.4102C118.209 45.6197 115.592 44.1081 112.829 42.9043C109.839 41.58 106.694 40.6305 103.469 40.0777C98.2017 39.1792 92.8093 39.3082 87.5917 40.4577C85.7597 40.8766 83.9569 41.4131 82.1946 42.0639C74.6939 44.8899 68.2017 49.8607 63.5361 56.3499C62.3193 58.04 61.237 59.8218 60.2987 61.6792C60.0716 62.1531 59.8147 62.6127 59.6135 63.0974L58.9768 64.5444C58.597 65.5318 58.206 66.5193 57.9043 67.5352C57.2432 69.5869 56.7536 71.6894 56.4403 73.8212C56.1261 75.9703 55.9753 78.1399 55.9891 80.3115C56.0304 82.4838 56.2345 84.6501 56.5997 86.7922C56.9677 88.9043 57.5099 90.9827 58.2209 93.0062C58.5555 94.0178 58.9859 94.995 59.3683 95.9728L60.0412 97.4033C60.2545 97.8865 60.5266 98.3394 60.7656 98.8038C61.7467 100.639 62.8724 102.395 64.1323 104.054C68.9606 110.425 75.577 115.232 83.1479 117.87C84.9322 118.472 86.754 118.958 88.6019 119.325C93.8467 120.343 99.2408 120.336 104.483 119.305C110.663 118.069 116.468 115.417 121.437 111.559C125.53 108.37 128.977 104.436 131.593 99.9668C132.664 98.1386 133.585 96.2266 134.344 94.2498C134.99 92.5896 135.525 90.8887 135.945 89.1582C136.296 87.597 136.559 86.2063 136.718 84.9714C136.788 84.3559 136.866 83.7918 136.911 83.2723C136.956 82.7528 136.976 82.2815 137.008 81.8579C137.04 81.4342 137.046 81.0661 137.05 80.7533C137.053 80.4404 137.061 80.1643 137.065 79.9471C137.06 79.5129 137.083 79.2918 137.083 79.2918C137.083 79.2918 137.086 79.5126 137.091 79.9468C137.094 80.1639 137.097 80.4325 137.101 80.7526C137.105 81.0728 137.11 81.4481 137.067 81.8571C137.024 82.2662 137.012 82.7521 136.981 83.2714C136.951 83.7907 136.865 84.3586 136.799 84.974C136.644 86.2015 136.399 87.6068 136.042 89.1717C135.626 90.9069 135.095 92.6127 134.452 94.2779C133.697 96.2624 132.779 98.1819 131.708 100.017C129.093 104.504 125.642 108.456 121.542 111.66C116.557 115.548 110.725 118.219 104.515 119.459C101.066 120.152 97.5413 120.393 94.0298 120.176C92.1951 120.074 90.3698 119.845 88.567 119.491C86.713 119.121 84.8859 118.629 83.0979 118.017C75.4903 115.375 68.8409 110.55 63.9892 104.151C62.7206 102.485 61.585 100.722 60.5926 98.8796C60.3536 98.4115 60.0815 97.9549 59.8645 97.4718C59.6475 96.9887 59.4158 96.5132 59.1877 96.034C58.7832 95.0527 58.3638 94.0717 58.0402 93.0563C57.3255 91.0258 56.7807 88.9401 56.4114 86.8203C55.6467 82.5147 55.5914 78.1139 56.2475 73.7905C56.5667 71.6624 57.0601 69.5637 57.7227 67.5154C58.0318 66.4921 58.4375 65.5007 58.795 64.5099C59.0109 64.025 59.2232 63.5402 59.4354 63.0554C59.6476 62.5707 59.8971 62.1075 60.1279 61.6298C61.0731 59.7638 62.1642 57.9744 63.3909 56.2781C68.0795 49.7603 74.6041 44.7695 82.1412 41.9358C83.9109 41.2752 85.7224 40.7312 87.5639 40.3072C92.8034 39.1609 98.2165 39.0354 103.504 39.9374C106.74 40.4877 109.894 41.4371 112.894 42.7636C115.667 43.9741 118.293 45.4943 120.721 47.295C124.902 50.3955 128.452 54.2588 131.181 58.6791C132.296 60.4873 133.262 62.383 134.068 64.3472C134.753 65.9958 135.326 67.6877 135.786 69.4118C136.175 70.9673 136.463 72.3696 136.649 73.5928C136.73 74.2064 136.815 74.7684 136.874 75.2866C136.932 75.8048 136.96 76.2792 136.995 76.702C137.03 77.1248 137.049 77.4925 137.057 77.8053C137.065 78.118 137.064 78.394 137.067 78.6111C137.095 79.0635 137.094 79.2843 137.094 79.2843Z" fill="#263238"/>
<path d="M97.5629 125.715L97.5583 125.347C106.802 125.229 115.804 122.387 123.425 117.18C131.046 111.974 136.944 104.637 140.373 96.0978C143.803 87.5583 144.609 78.1996 142.691 69.2049C140.773 60.2103 136.216 51.9837 129.597 45.5653C122.978 39.147 114.593 34.8251 105.504 33.1462C96.4148 31.4673 87.0286 32.5068 78.5325 36.1332C70.0364 39.7596 62.8119 45.81 57.7724 53.5195C52.733 61.229 50.1049 70.2513 50.2205 79.4456L49.8505 79.4502C49.5257 53.615 70.3978 32.3307 96.3734 32.0041C108.797 31.9574 120.735 36.7928 129.591 45.4581C138.446 54.1234 143.502 65.917 143.657 78.2725C143.813 90.6279 139.055 102.545 130.42 111.43C121.786 120.315 109.973 125.45 97.5518 125.715L97.5629 125.715Z" fill="#FF725E"/>
<path d="M97.0127 121.096L96.9896 119.256C107.512 119.124 117.552 114.839 124.899 107.345C132.247 99.8514 136.301 89.7617 136.169 79.2959C136.037 68.8302 131.731 58.8456 124.197 51.5388C116.664 44.2319 106.52 40.2013 95.9971 40.3336L95.974 38.4938C106.987 38.3553 117.604 42.5738 125.489 50.2213C133.374 57.8689 137.881 68.3189 138.019 79.2727C138.157 90.2264 133.914 100.786 126.224 108.63C118.533 116.473 108.026 120.957 97.0127 121.096Z" fill="#FF725E"/>
<path d="M144.811 78.2561L142.961 78.2794C142.701 66.2177 137.661 54.7471 128.94 46.3636C120.218 37.9801 108.52 33.3621 96.3906 33.5146C84.2616 33.6672 72.6832 38.5778 64.1751 47.178C55.6669 55.7782 50.9176 67.3719 50.9605 79.4363L49.1106 79.4595C48.7807 53.2195 69.9705 31.6 96.3642 31.2681C109.05 31.1232 121.275 35.9889 130.357 44.7977C139.44 53.6065 144.638 65.6392 144.811 78.2561Z" fill="#FF725E"/>
<path d="M97.9959 132.779C68.6017 133.149 44.3877 109.661 44.02 80.4252C43.6524 51.1899 67.2682 27.0999 96.6624 26.7303L96.6855 28.5701C68.3124 28.9269 45.515 52.1786 45.8699 80.402C46.2248 108.625 69.5997 131.296 97.9728 130.94C126.346 130.583 149.136 107.331 148.781 79.1079L150.631 79.0846C150.999 108.331 127.394 132.41 97.9959 132.779Z" fill="#FF725E"/>
<path d="M97.2343 139.012L96.3057 139.024L96.301 138.656L97.226 138.645L97.2343 139.012Z" fill="#FF725E"/>
<path d="M92.5481 138.876C91.9296 138.836 91.2999 138.785 90.696 138.723L90.7321 138.354C91.347 138.413 91.973 138.464 92.5841 138.504L92.5481 138.876ZM86.9899 138.258C86.3707 138.159 85.7476 138.049 85.1356 137.932L85.2087 137.563C85.8096 137.68 86.4252 137.79 87.0407 137.889L86.9899 138.258ZM81.4878 137.102C80.8901 136.947 80.2811 136.778 79.6831 136.602L79.7895 136.232C80.3838 136.409 80.9854 136.585 81.583 136.732L81.4878 137.102ZM76.1198 135.425C75.5324 135.211 74.9449 134.983 74.3648 134.751L74.5048 134.411C75.0776 134.643 75.665 134.867 76.2487 135.081L76.1198 135.425ZM70.9158 133.26C70.3537 132.991 69.7988 132.711 69.2365 132.423L69.4063 132.097C69.9575 132.381 70.5235 132.661 71.0745 132.93L70.9158 133.26ZM65.9646 130.595C65.4315 130.274 64.8944 129.942 64.3759 129.607L64.5755 129.295C65.094 129.631 65.6274 129.963 66.1568 130.28L65.9646 130.595ZM61.2964 127.478C60.796 127.116 60.2953 126.728 59.802 126.341L60.0352 126.054C60.5173 126.435 61.0142 126.815 61.511 127.18L61.2964 127.478ZM56.9447 123.933C56.4769 123.516 56.0164 123.087 55.5707 122.662L55.8264 122.398C56.2683 122.819 56.7288 123.244 57.1929 123.661L56.9447 123.933ZM52.9504 119.979C52.5302 119.521 52.1099 119.055 51.7044 118.585L51.9863 118.346C52.3881 118.812 52.8047 119.278 53.2249 119.733L52.9504 119.979ZM49.3516 115.689C48.9753 115.189 48.5989 114.686 48.2448 114.183L48.5456 113.973C48.8996 114.469 49.2686 114.972 49.6448 115.464L49.3516 115.689ZM46.178 111.077C45.8532 110.555 45.5281 110.014 45.218 109.477L45.5523 109.289C45.8588 109.822 46.18 110.356 46.5011 110.878L46.178 111.077ZM43.4597 106.191C43.1826 105.635 42.9127 105.068 42.6578 104.508L42.9963 104.356C43.2475 104.913 43.5173 105.476 43.7907 106.028L43.4597 106.191ZM41.2232 101.066C41.0013 100.488 40.7867 99.8978 40.5869 99.3152L40.9554 99.1927C41.1552 99.7754 41.3661 100.362 41.5879 100.937L41.2232 101.066ZM39.4838 95.7481C39.3209 95.1503 39.1652 94.545 39.0208 93.9432L39.3897 93.8576C39.5305 94.4557 39.686 95.0573 39.8489 95.6515L39.4838 95.7481ZM38.2829 90.2943C38.1791 89.6883 38.0825 89.0676 37.9934 88.4578L38.3628 88.409C38.4482 89.0188 38.5448 89.6359 38.6486 90.2455L38.2829 90.2943ZM37.5802 84.7312C37.5318 84.1172 37.4943 83.4883 37.468 82.8703L37.838 82.8657C37.8457 83.4802 37.9016 84.1015 37.9499 84.7044L37.5802 84.7312ZM37.7729 79.1641L37.403 79.1688C37.4173 78.5466 37.4391 77.9207 37.4683 77.3021L37.8386 77.3232C37.8202 77.9233 37.8022 78.5455 37.7729 79.1641ZM38.1398 73.617L37.7693 73.5775C37.8393 72.962 37.9202 72.339 38.0088 71.7343L38.3795 71.7886C38.3057 72.3894 38.2246 73.005 38.1546 73.6168L38.1398 73.617ZM39.0329 68.1332L38.662 68.0569C38.7913 67.4517 38.9316 66.839 39.0795 66.2409L39.4506 66.3283C39.3137 66.9225 39.1734 67.5315 39.048 68.1514L39.0329 68.1332ZM40.4455 62.7569L40.0925 62.6473C40.2812 62.0561 40.481 61.461 40.6845 60.8733L41.0338 60.994C40.8451 61.5779 40.6453 62.1729 40.4603 62.7567L40.4455 62.7569ZM42.3779 57.5324L42.0357 57.3895C42.2801 56.8196 42.5357 56.246 42.795 55.6796L43.1336 55.8336C42.8854 56.3961 42.6335 56.9661 42.3927 57.5322L42.3779 57.5324ZM44.8014 52.5151L44.4773 52.3425C44.7739 51.7941 45.0803 51.2505 45.3967 50.7116L45.7136 50.899C45.4168 51.429 45.1091 51.9739 44.8162 52.5149L44.8014 52.5151ZM47.7018 47.7568L47.3921 47.5509C47.7557 47.0385 48.1007 46.5226 48.4644 46.0175L48.7631 46.2309C48.4105 46.7321 48.0506 47.2445 47.7092 47.7567L47.7018 47.7568ZM51.0315 43.2986L50.7473 43.063C51.141 42.5869 51.5494 42.107 51.9579 41.6382L52.2348 41.8813C51.8372 42.339 51.4325 42.8151 51.0388 43.2911L51.0315 43.2986ZM54.7724 39.1664L54.5101 38.9084C54.945 38.4724 55.3983 38.0324 55.848 37.6035L56.103 37.8726C55.6605 38.2904 55.2146 38.7266 54.7797 39.159L54.7724 39.1664ZM58.8879 35.4086L58.6512 35.1245C59.1273 34.7284 59.6182 34.3358 60.1166 33.9542L60.346 34.2457C59.8549 34.6162 59.3677 35.0088 58.8953 35.4012L58.8879 35.4086ZM63.3377 32.0404L63.1304 31.7376C63.6367 31.3889 64.1652 31.0437 64.6901 30.7095L64.8901 31.0199C64.3726 31.3576 63.8515 31.7027 63.3452 32.0477L63.3377 32.0404ZM68.0932 29.1431L67.9152 28.8178C68.4591 28.5202 69.0178 28.2261 69.5656 27.9432L69.7363 28.2723C69.1883 28.5405 68.6369 28.8308 68.0932 29.1431ZM73.0984 26.688L72.9499 26.3513C73.5203 26.1049 74.1019 25.862 74.6763 25.6377L74.8138 25.9782C74.243 26.1915 73.665 26.4306 73.0983 26.6769L73.0984 26.688ZM78.317 24.7197L78.2016 24.3715C78.7949 24.18 79.3994 23.9884 79.993 23.8227L80.0975 24.1894C79.5037 24.3367 78.8991 24.5173 78.3168 24.7086L78.317 24.7197ZM83.6935 23.2462L83.6149 22.8791C84.2237 22.7427 84.8401 22.6171 85.4601 22.4879L85.5313 22.855C84.9261 22.9878 84.3098 23.1133 83.6935 23.2462ZM89.1987 22.301L89.1534 21.9336C89.7704 21.8559 90.3986 21.7891 91.001 21.7337L91.0353 22.1013C90.4476 22.1565 89.8234 22.2453 89.2098 22.3009L89.1987 22.301Z" fill="#FF725E"/>
<path d="M94.8363 21.8768L94.8317 21.5089L95.7603 21.4972L95.7649 21.8652L94.8363 21.8768Z" fill="#FF725E"/>
<path d="M174.225 91.0103L154.086 91.6833L154.54 105.185L174.679 104.512L174.225 91.0103Z" fill="#FF725E"/>
<path d="M174.287 91.1787C174.235 91.2471 174.175 91.3096 174.108 91.365L173.563 91.8723L171.537 93.7196L164.789 99.7628L164.734 99.8113L164.675 99.7679L164.529 99.6593L157.167 94.1726C156.244 93.4702 155.489 92.9019 154.948 92.4929C154.701 92.2972 154.503 92.1304 154.35 92.0293C154.277 91.9788 154.211 91.9203 154.151 91.8551C154.229 91.8967 154.303 91.945 154.371 91.9996L154.991 92.4334L157.232 94.0687L164.627 99.5146L164.773 99.6232L164.658 99.6246L171.439 93.6214L173.503 91.8216L174.071 91.3397C174.139 91.2809 174.211 91.2272 174.287 91.1787Z" fill="#263238"/>
<path d="M154.602 105.341C154.565 105.309 156.017 103.41 157.846 101.094C159.674 98.7782 161.194 96.93 161.235 96.9626C161.276 96.9952 159.824 98.8941 157.992 101.21C156.159 103.526 154.662 105.385 154.602 105.341Z" fill="#263238"/>
<path d="M167.924 96.5804C167.961 96.5505 169.519 98.3343 171.401 100.585C173.283 102.836 174.782 104.661 174.742 104.691C174.702 104.721 173.144 102.937 171.262 100.686C169.379 98.4354 167.873 96.6142 167.924 96.5804Z" fill="#263238"/>
<path d="M155.01 36.2315C155.012 36.5596 154.916 36.8809 154.734 37.1548C154.553 37.4287 154.293 37.643 153.989 37.7705C153.686 37.8981 153.35 37.9332 153.026 37.8714C152.702 37.8095 152.404 37.6536 152.169 37.4233C151.934 37.1929 151.774 36.8985 151.707 36.5772C151.64 36.2559 151.671 35.9221 151.795 35.618C151.919 35.314 152.13 35.0532 152.403 34.8688C152.676 34.6843 152.998 34.5845 153.328 34.5818C153.547 34.58 153.765 34.6212 153.968 34.7032C154.171 34.7852 154.356 34.9063 154.513 35.0595C154.669 35.2127 154.793 35.3951 154.879 35.5962C154.964 35.7973 155.008 36.0132 155.01 36.2315Z" fill="#455A64"/>
<path d="M149.977 34.1602C150.397 33.6983 150.907 33.3261 151.475 33.066C152.044 32.806 152.66 32.6636 153.286 32.6475C153.912 32.6313 154.534 32.7418 155.116 32.9722C155.697 33.2026 156.226 33.5481 156.669 33.9877C157.534 34.8306 158.849 33.5002 157.988 32.6536C157.367 32.0455 156.63 31.5673 155.82 31.2472C155.01 30.9271 154.144 30.7715 153.273 30.7897C152.401 30.8078 151.542 30.9993 150.747 31.3529C149.951 31.7065 149.235 32.215 148.64 32.8484C147.814 33.7273 149.152 35.0501 149.977 34.1602Z" fill="#455A64"/>
<path d="M144.208 26.5004C146.719 24.2828 149.732 22.8721 153.128 22.8221C156.51 22.7405 159.796 23.9442 162.317 26.1881C163.208 26.9976 164.531 25.6707 163.633 24.854C160.754 22.266 156.992 20.8657 153.112 20.938C149.205 20.9871 145.754 22.6277 142.871 25.1739C141.963 25.9729 143.308 27.2809 144.208 26.4857L144.208 26.5004Z" fill="#455A64"/>
<path d="M146.5 30.7555C147.336 29.8044 148.36 29.0358 149.509 28.4981C150.658 27.9604 151.907 27.6652 153.176 27.6313C154.445 27.5974 155.707 27.8253 156.884 28.3009C158.06 28.7764 159.124 29.4892 160.009 30.3942C160.864 31.2447 162.179 29.9143 161.325 29.0638C160.264 27.9881 158.993 27.1405 157.59 26.5736C156.187 26.0067 154.681 25.7325 153.167 25.7682C151.653 25.8038 150.162 26.1484 148.787 26.7806C147.412 27.4128 146.182 28.3192 145.174 29.4436C144.364 30.337 145.698 31.6451 146.512 30.7553L146.5 30.7555Z" fill="#455A64"/>
<path d="M30.2204 99.4529C30.2058 98.2655 29.9161 97.0974 29.3741 96.0394C28.832 94.9814 28.0521 94.062 27.0948 93.3524C26.1376 92.6428 25.0287 92.1622 23.8544 91.9478C22.6801 91.7335 21.4719 91.7913 20.3235 92.1166C19.1752 92.4419 18.1177 93.026 17.233 93.8236C16.3483 94.6212 15.6604 95.6108 15.2225 96.7156C14.7846 97.8205 14.6086 99.0107 14.7081 100.194C14.8076 101.377 15.18 102.522 15.7963 103.539L15.8188 103.568C16.1248 104.065 16.503 104.417 16.887 104.939L21.4754 110.828C21.6082 110.999 21.7791 111.136 21.9745 111.23C22.1699 111.324 22.3845 111.371 22.6015 111.369C22.8185 111.366 23.0318 111.313 23.2248 111.214C23.4178 111.116 23.5852 110.974 23.7137 110.8L28.0798 104.893C28.4697 104.418 28.834 103.922 29.1712 103.408L29.1709 103.386C29.8702 102.192 30.2328 100.834 30.2204 99.4529ZM22.4934 102.917C21.8165 102.926 21.1524 102.735 20.5849 102.368C20.0174 102.001 19.5721 101.475 19.3052 100.856C19.0384 100.237 18.962 99.5539 19.0858 98.8919C19.2095 98.23 19.5278 97.6194 20.0004 97.1374C20.4731 96.6554 21.0788 96.3235 21.741 96.1838C22.4032 96.0442 23.0921 96.1029 23.7207 96.3527C24.3492 96.6024 24.8892 97.032 25.2723 97.587C25.6554 98.142 25.8644 98.7975 25.8728 99.4707C25.8784 99.918 25.7954 100.362 25.6283 100.777C25.4613 101.193 25.2136 101.571 24.8994 101.891C24.5852 102.212 24.2107 102.467 23.7972 102.643C23.3837 102.819 22.9394 102.912 22.4897 102.918L22.4934 102.917Z" fill="#455A64"/>
<path d="M35.3171 41.2954C35.4815 43.3075 35.042 45.3229 34.0542 47.0866C33.0664 48.8502 31.5747 50.2828 29.7679 51.2029C27.9612 52.123 25.9207 52.4893 23.9047 52.2554C21.8887 52.0215 19.9879 51.1979 18.4429 49.8889C16.8979 48.5799 15.7782 46.8444 15.2255 44.902C14.6729 42.9596 14.7122 40.8977 15.3383 38.9773C15.9645 37.057 17.1495 35.3645 18.7432 34.1142C20.3369 32.8639 22.2677 32.112 24.2912 31.9536C25.632 31.8467 26.9808 32.0036 28.2606 32.4152C29.5404 32.8269 30.7261 33.4852 31.75 34.3527C32.7739 35.2202 33.6159 36.2798 34.2279 37.4711C34.84 38.6623 35.2101 39.9618 35.3171 41.2954Z" fill="#FF725E"/>
<g opacity="0.3">
<path d="M32.8557 41.2454C32.7305 40.9506 32.6373 40.6433 32.5778 40.3288C32.3355 39.5099 31.9688 38.7326 31.4905 38.0239C31.164 37.5419 30.7862 37.0963 30.3637 36.6948C29.8666 36.2363 29.3119 35.8437 28.7135 35.5268C28.3934 35.3564 28.0614 35.2093 27.72 35.0866C27.3659 34.9563 27.0021 34.8538 26.632 34.7801C26.2494 34.7036 25.8617 34.6556 25.472 34.6364C25.0696 34.6194 24.6666 34.6319 24.2661 34.6737C23.8665 34.7217 23.4706 34.7967 23.0812 34.8983C22.7042 34.9998 22.3349 35.1274 21.9759 35.2803C21.6328 35.4351 21.3012 35.6139 20.9835 35.8153C20.6757 36.0077 20.384 36.2243 20.111 36.463C19.6017 36.8996 19.1515 37.4001 18.7717 37.952C18.4408 38.4341 18.1644 38.951 17.9474 39.4933C17.6335 40.2887 17.4467 41.128 17.3941 41.9808C17.4035 42.3005 17.379 42.6203 17.321 42.9349C17.2 42.6303 17.1455 42.3036 17.1609 41.9764C17.1243 41.0848 17.2562 40.1944 17.5497 39.3511C17.7583 38.7692 18.0371 38.2145 18.38 37.6993C18.7658 37.0964 19.2333 36.5493 19.7694 36.0735C20.0582 35.813 20.367 35.5754 20.6929 35.3626C21.0309 35.1374 21.3874 34.9409 21.7586 34.7751C22.1415 34.5987 22.5382 34.4534 22.9446 34.3407C23.7861 34.109 24.6594 34.0136 25.5313 34.0579C25.9525 34.0806 26.3713 34.1357 26.7841 34.2224C27.1815 34.31 27.5714 34.4281 27.9504 34.5758C28.3148 34.7125 28.6682 34.8766 29.0074 35.0667C29.6335 35.4179 30.2101 35.8499 30.722 36.3517C31.1628 36.7909 31.5502 37.2802 31.8764 37.8093C32.3453 38.5704 32.6694 39.4109 32.8326 40.2888C32.9097 40.6022 32.9176 40.9286 32.8557 41.2454Z" fill="black"/>
</g>
<g opacity="0.3">
<path d="M26.341 46.649L26.4689 47.9981L25.2566 48.109L25.1551 46.8001C24.0745 46.8624 22.9981 46.6208 22.0492 46.1031L22.5776 44.5728C23.3174 44.9918 24.1542 45.2121 25.0056 45.2121L24.8175 43.2013C23.4422 43.0015 21.899 42.6933 21.7404 40.973C21.6208 39.6974 22.4496 38.5166 24.3392 38.1212L24.2151 36.7868L25.3978 36.6725L25.5216 37.9849C26.392 37.9524 27.2578 38.1256 28.0478 38.4904L27.5824 40.0273C26.9813 39.753 26.3319 39.5987 25.671 39.5729L25.8633 41.6204C27.2348 41.8092 28.7521 42.1177 28.914 43.8123C29.0374 45.0914 28.2194 46.2463 26.341 46.649ZM24.6326 41.4445L24.4705 39.7352C23.844 39.9381 23.6229 40.3089 23.6613 40.7096C23.6996 41.1102 24.0834 41.3226 24.6326 41.4445ZM26.9719 44.1495C26.9333 43.7304 26.5608 43.5327 26.0226 43.3996L26.1767 45.0612C26.7849 44.8732 27.0211 44.5353 26.9719 44.1495Z" fill="black"/>
</g>
<path d="M17.3034 42.7106C17.3256 42.7104 17.3558 43.0486 17.4818 43.6506C17.6695 44.4956 17.9973 45.3036 18.4517 46.0416C18.7644 46.5505 19.1327 47.0236 19.5499 47.452C20.0377 47.9336 20.5837 48.3533 21.1753 48.7013C21.8311 49.0806 22.5389 49.3631 23.2765 49.5398C24.07 49.7224 24.8862 49.7877 25.6989 49.7338C26.5094 49.6595 27.3047 49.4685 28.06 49.1668C28.7595 48.8805 29.4139 48.4954 30.003 48.0235C31.0072 47.2135 31.7895 46.1643 32.2774 44.9734C32.6148 44.1678 32.8153 43.3122 32.8709 42.4413C32.9002 41.83 32.8774 41.488 32.8996 41.4877C32.9178 41.5685 32.9263 41.6512 32.9249 41.734C32.9427 41.9703 32.9457 42.2075 32.9338 42.4442C32.9111 43.3294 32.7317 44.2037 32.4039 45.027C32.1777 45.5919 31.8891 46.13 31.5434 46.6314C31.1338 47.1979 30.6556 47.7119 30.1195 48.1619C29.5218 48.6457 28.8577 49.0419 28.1472 49.3387C26.5975 49.9884 24.8785 50.1236 23.2455 49.7242C22.4874 49.546 21.7596 49.2589 21.0849 48.8717C20.4828 48.5132 19.929 48.0799 19.4369 47.5823C19.0153 47.1391 18.6454 46.6499 18.3343 46.124C17.8842 45.3672 17.5707 44.5379 17.4081 43.6736C17.3694 43.4363 17.3454 43.197 17.3361 42.9568C17.3154 42.8763 17.3044 42.7937 17.3034 42.7106Z" fill="#263238"/>
<path d="M31.4061 154.024C31.4061 154.024 33.9087 155.59 35.0549 155.52C36.2011 155.451 40.6411 149.834 40.6411 149.834L38.2696 148.097L32.4952 149.123L31.4128 153.972" fill="#263238"/>
<path d="M79.5979 71.8591C80.1119 73.7018 80.1541 75.6432 79.7206 77.5064C79.2871 79.3696 78.3917 81.0954 77.1159 82.5264C75.9443 83.8145 74.4442 84.8749 73.7129 86.4519C72.9023 88.1992 73.1981 90.238 72.8519 92.134C72.5057 94.03 70.9179 96.0594 69.0623 95.6264C70.8483 98.1802 73.5358 100.027 76.4082 101.283C79.2806 102.538 82.3535 103.258 85.4078 103.974C87.1075 104.368 88.9404 104.758 90.5527 104.09C92.6399 103.228 93.6544 100.922 94.468 98.8253L101.557 80.5519" fill="#263238"/>
<path d="M104.561 64.295C104.551 63.6133 104.285 62.96 103.814 62.4644C103.343 61.9688 102.703 61.6668 102.019 61.6183L89.0438 55.893C84.381 55.5615 79.8347 63.9104 79.7007 68.5566C79.5509 73.7109 80.3023 79.9138 81.046 83.7356C82.5414 91.4233 87.771 91.5048 87.771 91.5048L88.3717 103.966L104.561 103.733L104.561 64.295Z" fill="#B5715A"/>
<path d="M83.1745 74.6774C83.1816 74.9358 83.2896 75.1812 83.4756 75.3616C83.6617 75.5421 83.9111 75.6433 84.1709 75.6438C84.2979 75.6492 84.4247 75.6292 84.5438 75.5852C84.6629 75.5412 84.772 75.4739 84.8647 75.3874C84.9573 75.3009 85.0317 75.1968 85.0834 75.0813C85.1351 74.9659 85.1631 74.8413 85.1657 74.7149C85.1596 74.4569 85.0524 74.2114 84.867 74.0309C84.6815 73.8504 84.4325 73.749 84.173 73.7485C84.0456 73.7421 83.9182 73.7613 83.7984 73.8049C83.6786 73.8486 83.5689 73.9157 83.4757 74.0024C83.3826 74.0891 83.3079 74.1935 83.2562 74.3095C83.2044 74.4254 83.1766 74.5506 83.1745 74.6774Z" fill="#263238"/>
<path d="M81.865 72.0588C81.9734 72.1494 82.7562 72.0145 83.8061 72.2331C84.8561 72.4518 85.5831 72.8843 85.7084 72.8422C85.7673 72.8231 85.6619 72.6772 85.3338 72.4789C84.865 72.2061 84.3535 72.0135 83.8206 71.9091C83.3099 71.7972 82.783 71.7788 82.2658 71.855C81.9335 71.9181 81.8091 72.03 81.865 72.0588Z" fill="#263238"/>
<path d="M93.283 74.0351C93.2891 74.2941 93.3967 74.5404 93.5829 74.7217C93.769 74.9029 94.019 75.0046 94.2795 75.0052C94.4065 75.0105 94.5332 74.9906 94.6524 74.9465C94.7715 74.9025 94.8806 74.8352 94.9732 74.7487C95.0659 74.6622 95.1403 74.5581 95.192 74.4427C95.2436 74.3272 95.2716 74.2026 95.2743 74.0763C95.2682 73.8179 95.1611 73.572 94.9758 73.3909C94.7904 73.2098 94.5414 73.1076 94.2815 73.1061C94.1544 73.1008 94.0274 73.1207 93.9081 73.1647C93.7887 73.2087 93.6794 73.2759 93.5864 73.3624C93.4935 73.4488 93.4188 73.5529 93.3667 73.6684C93.3146 73.7838 93.2862 73.9085 93.283 74.0351Z" fill="#263238"/>
<path d="M91.7949 72.5154C91.9508 72.5503 92.621 72.0008 93.7343 71.663C94.8475 71.3251 95.7769 71.376 95.8718 71.2681C95.9192 71.2159 95.7405 71.1262 95.3331 71.0982C94.7429 71.0709 94.1525 71.1481 93.5894 71.3262C93.0417 71.4793 92.5286 71.7356 92.0781 72.0813C91.789 72.3388 91.7134 72.5054 91.7949 72.5154Z" fill="#263238"/>
<path d="M88.1034 79.6795C88.1026 79.617 87.4354 79.526 86.35 79.4255C86.0759 79.4069 85.8163 79.3623 85.7622 79.1753C85.7311 78.8953 85.7856 78.6125 85.9185 78.3637C86.1543 77.6946 86.4008 76.9959 86.658 76.2603C87.6824 73.2701 88.4138 70.8171 88.2911 70.7745C88.1685 70.7319 87.2402 73.1284 86.2159 76.1186C85.9735 76.8577 85.7381 77.56 85.5023 78.2291C85.3405 78.5641 85.3034 78.9453 85.3975 79.305C85.4402 79.4059 85.5067 79.4951 85.5913 79.5651C85.6759 79.6351 85.7761 79.6839 85.8836 79.7074C86.0366 79.7423 86.1934 79.7576 86.3504 79.7531C87.4347 79.7652 88.1042 79.7457 88.1034 79.6795Z" fill="#263238"/>
<path d="M87.7721 91.5931C91.4358 91.5266 95.0091 90.4497 98.0938 88.4823C98.0938 88.4823 95.8826 94.1998 88.084 93.7385L87.7721 91.5931Z" fill="#884C3B"/>
<path d="M88.3764 82.2707C88.5842 81.8988 88.8727 81.5776 89.221 81.3307C89.5694 81.0837 89.9687 80.9172 90.3899 80.8432C90.6352 80.8119 90.8842 80.8552 91.1043 80.9674C91.3243 81.0796 91.505 81.2554 91.6226 81.4717C91.7494 81.7552 91.8056 82.065 91.7863 82.3747C91.767 82.6844 91.6728 82.9849 91.5118 83.2507C91.3573 83.5301 91.1238 83.7583 90.8403 83.9071C90.5567 84.0559 90.2355 84.1187 89.9164 84.0878C89.3875 83.9566 88.9099 83.6718 88.5444 83.2696C88.4203 83.1735 88.3221 83.0483 88.2586 82.9052C88.2255 82.8132 88.214 82.7149 88.2249 82.6178C88.2359 82.5207 88.269 82.4274 88.3219 82.345" fill="#884C3B"/>
<path d="M91.2936 80.3166C91.116 80.3188 91.1527 81.4703 90.1866 82.3252C89.2204 83.1801 87.976 83.0891 87.9781 83.2583C87.979 83.3319 88.262 83.4719 88.7874 83.469C89.4659 83.4534 90.1174 83.2016 90.6286 82.7576C91.1201 82.3273 91.4254 81.7249 91.4808 81.076C91.5116 80.5898 91.3712 80.3082 91.2936 80.3166Z" fill="#263238"/>
<path d="M90.9099 67.4588C91.054 67.733 92.0975 67.4438 93.3628 67.4279C94.6281 67.412 95.6852 67.6122 95.8186 67.3308C95.8724 67.1976 95.6623 66.9647 95.219 66.7274C94.6298 66.4585 93.9866 66.3269 93.3385 66.3427C92.6904 66.3585 92.0544 66.5213 91.4791 66.8186C91.0494 67.0706 90.8491 67.3271 90.9099 67.4588Z" fill="#263238"/>
<path d="M80.8757 70.7794C81.1192 71.0156 82.0296 70.7281 83.1316 70.6738C84.2336 70.6195 85.1752 70.7622 85.3828 70.4983C85.4701 70.372 85.3153 70.1311 84.8983 69.9229C84.3205 69.6505 83.6815 69.5318 83.0438 69.5782C82.412 69.6069 81.7985 69.7985 81.2635 70.1342C80.8896 70.4112 80.7707 70.6667 80.8757 70.7794Z" fill="#263238"/>
<path d="M112.752 83.2891C112.039 79.868 109.807 68.9067 106.649 63.2162C103.492 57.5257 99.9375 55.307 96.501 54.5111C95.1961 54.1759 93.8262 54.1812 92.5238 54.5264C91.2214 54.8715 90.0304 55.545 89.066 56.4816C87.5779 57.9062 87.1953 61.9078 87.1953 61.9078C87.1953 61.9078 95.4772 63.4266 98.4096 67.9864C101.784 73.2216 102.65 75.8862 102.65 75.8862L103.796 78.7756C103.796 78.7756 104.847 92.8983 104.593 95.6949L117.058 99.995C114.326 94.5788 113.469 86.7211 112.752 83.2891Z" fill="#263238"/>
<path d="M87.7013 61.8388C87.7013 61.8388 82.2518 61.6277 80.7056 66.9651C79.9959 69.381 80.0099 76.377 80.0099 76.377C80.0099 76.377 78.7748 70.8463 78.913 67.7127C79.0512 64.579 80.4773 60.5753 82.8058 58.3011C85.0684 56.0902 87.0087 55.0206 91.2025 55.1224C91.2025 55.1224 90.618 56.3148 89.606 57.9322C89.0981 58.7445 88.2853 58.8431 87.7013 61.8388Z" fill="#263238"/>
<path d="M102.607 76.2953C102.633 74.5799 104.464 73.3719 105.984 74.1771C106.819 74.6156 107.481 75.5384 107.471 77.3603C107.447 82.2075 102.557 81.1833 102.548 81.0436C102.551 80.97 102.58 78.3014 102.607 76.2953Z" fill="#B5715A"/>
<path d="M104.046 79.2141C104.068 79.2138 104.132 79.2755 104.277 79.34C104.478 79.4267 104.704 79.433 104.91 79.3578C105.425 79.1709 105.863 78.3595 105.893 77.5053C105.906 77.0892 105.827 76.6753 105.659 76.2937C105.615 76.1419 105.535 76.0032 105.424 75.8897C105.314 75.7762 105.177 75.6914 105.026 75.6429C104.928 75.6155 104.824 75.6233 104.732 75.6649C104.64 75.7065 104.565 75.7791 104.522 75.87C104.457 76.007 104.488 76.1023 104.462 76.11C104.436 76.1177 104.357 76.0304 104.399 75.8311C104.424 75.71 104.493 75.6021 104.591 75.5269C104.726 75.4279 104.894 75.3848 105.06 75.4069C105.26 75.4465 105.447 75.5367 105.602 75.6688C105.757 75.8009 105.876 75.9705 105.946 76.1613C106.151 76.583 106.249 77.0478 106.233 77.5157C106.198 78.4914 105.687 79.4032 104.983 79.6034C104.852 79.6402 104.714 79.6473 104.58 79.6241C104.446 79.601 104.319 79.5482 104.208 79.4696C104.055 79.3317 104.031 79.2216 104.046 79.2141Z" fill="#884C3B"/>
<path d="M93.1287 54.4026C93.1292 54.4394 92.5757 54.5642 91.7368 54.9464C90.6431 55.4452 89.7065 56.2304 89.0272 57.2181C88.3598 58.2128 87.8424 59.2993 87.4914 60.443C87.2064 61.3188 87.0654 61.8763 87.032 61.8656C87.0371 61.731 87.0577 61.5974 87.0935 61.4674C87.1422 61.2129 87.2375 60.851 87.3614 60.4041C87.6788 59.2298 88.1887 58.1155 88.8703 57.106C89.2556 56.552 89.7236 56.0596 90.2581 55.6459C90.6952 55.3128 91.1729 55.036 91.6798 54.822C91.8727 54.7375 92.0708 54.6649 92.2728 54.6048C92.4219 54.5506 92.5747 54.5069 92.73 54.4739C92.8591 54.4327 92.9932 54.4087 93.1287 54.4026Z" fill="#455A64"/>
<path d="M110.697 91.717C110.677 91.6849 110.662 91.6505 110.651 91.6145C110.621 91.5376 110.586 91.435 110.536 91.3105C110.394 90.9163 110.283 90.5116 110.203 90.1002C109.967 88.5798 109.947 87.0338 110.145 85.5079C110.233 84.5389 110.36 83.4811 110.439 82.3466C110.543 81.142 110.504 79.9294 110.323 78.734C110.084 77.4212 109.604 76.1635 108.907 75.0236C108.158 73.7983 107.241 72.6827 106.183 71.7088C104.015 69.6862 101.496 68.323 99.2241 67.1297C96.9519 65.9364 94.852 64.9103 93.1889 63.8934C91.8725 63.0935 90.6005 62.2237 89.3781 61.2878C88.9447 60.9547 88.6305 60.6863 88.3988 60.5052L88.1482 60.2949C88.0958 60.244 88.0659 60.2186 88.0695 60.2149L88.1628 60.2799C88.2301 60.3306 88.316 60.3921 88.4206 60.4754L89.4255 61.2283C90.2994 61.8724 91.5875 62.78 93.2614 63.7784C94.9354 64.7767 97.0094 65.8069 99.3073 66.9815C101.605 68.156 104.12 69.5303 106.314 71.5784C107.385 72.5648 108.313 73.6938 109.072 74.9332C109.778 76.0954 110.262 77.3768 110.5 78.7133C110.678 79.923 110.711 81.1493 110.598 82.3666C110.512 83.5086 110.378 84.5776 110.268 85.5248C110.062 87.0417 110.063 88.5791 110.27 90.0957C110.343 90.505 110.442 90.9094 110.566 91.3065C110.608 91.4348 110.639 91.5337 110.662 91.6144C110.677 91.6476 110.688 91.6819 110.697 91.717Z" fill="#455A64"/>
<path d="M33.1269 147.856C33.2113 147.779 33.308 147.715 33.4132 147.669C33.6892 147.516 33.9787 147.39 34.278 147.29C35.2723 146.959 36.3356 146.888 37.3652 147.085C38.3928 147.287 39.3522 147.745 40.1534 148.416C40.3931 148.617 40.6139 148.84 40.813 149.081C40.9558 149.256 41.02 149.358 41.009 149.365C40.998 149.373 40.6825 149.002 40.066 148.524C39.2674 147.895 38.3286 147.466 37.3287 147.274C36.3288 147.082 35.2971 147.131 34.3203 147.418C33.5682 147.641 33.1421 147.889 33.1269 147.856Z" fill="#263238"/>
<path d="M38.4385 145.048C38.6917 145.172 38.9226 145.337 39.1218 145.536C40.1398 146.441 40.8655 147.625 41.2071 148.94C41.2929 149.207 41.3351 149.486 41.3322 149.766C41.0754 148.873 40.7131 148.012 40.2528 147.204C39.7361 146.416 39.127 145.692 38.4385 145.048Z" fill="#263238"/>
<path d="M67.0865 176.261C67.0865 176.261 70.7763 157.183 79.0581 153.399L112.066 152.02C112.066 152.02 123.068 159.15 125.022 175.639L67.0865 176.261Z" fill="#263238"/>
<path d="M87.977 94.9359C87.977 94.9359 89.0266 101.014 95.551 100.195C102.075 99.3774 104.586 95.7134 104.586 95.7134L113.702 98.4951L115.349 115.945C110.299 126.037 107.533 137.108 107.247 148.378C107.196 150.267 107.156 152.339 105.908 153.764C105.142 154.643 104.023 155.131 102.918 155.521C99.3989 156.741 95.667 157.238 91.9491 156.98C88.2311 156.723 84.6046 155.716 81.2898 154.022C81.2898 154.022 78.1392 124.171 78.4689 123.32C78.7986 122.469 83.0257 97.2689 83.0257 97.2689L87.977 94.9359Z" fill="#E0E0E0"/>
<path d="M78.3418 96.4372C78.3418 96.4372 72.5753 96.9145 71.0385 97.703C69.5017 98.4915 49.5855 123.992 48.8023 124.389C48.1626 124.717 36.26 136 31.4268 146.836C30.4731 148.972 29.7527 152.01 31.391 153.998C31.391 153.998 37.1011 146.68 40.6262 149.816L56.0118 133.911L72.1718 124.264L78.3418 96.4372Z" fill="#455A64"/>
<g opacity="0.3">
<path d="M84.8632 145.704C91.5496 132.459 91.3098 113.391 87.8228 95.9242L85.2055 120.84L84.8632 145.704Z" fill="black"/>
</g>
<path d="M69.5241 101.163L70.3068 122.499C70.3068 122.499 72.6574 146.119 73.0533 146.114C73.4492 146.109 74.7045 154.425 73.2048 158.161C71.7051 161.897 66.7437 166.961 66.7437 166.961L73.1446 173.675C73.1446 173.675 78.9464 164.243 80.6835 158.196C82.4206 152.15 87.3231 142.99 87.8835 126.054C88.4438 109.118 87.918 92.607 87.918 92.607L82.998 96.2461L78.2266 96.4055L69.5241 101.163Z" fill="#455A64"/>
<path d="M81.6756 157.046C81.6756 157.046 81.6747 156.977 81.7249 156.843C81.775 156.71 81.8132 156.507 81.884 156.253L82.4807 153.974C82.9812 151.992 83.6888 149.116 84.3318 145.519C84.6533 143.723 84.9578 141.743 85.1568 139.621C85.2507 138.552 85.3181 137.444 85.3297 136.306C85.351 135.134 85.2719 133.961 85.0932 132.802C84.9944 132.203 84.8446 131.614 84.6456 131.041C84.4421 130.458 84.2607 129.864 83.9908 129.286L83.6097 128.408L83.1991 127.537C82.9327 126.952 82.6294 126.374 82.3297 125.789C81.1164 123.46 79.7031 121.126 78.1714 118.79C76.8509 116.771 75.4981 114.827 74.1281 112.989L74.0753 112.916L74.1449 112.86L83.7057 104.853L83.7705 104.999L75.2734 106.081L75.1034 106.102L75.2091 105.968C77.6028 102.994 79.5443 100.555 80.8886 98.8709L82.437 96.9488L82.8452 96.4505C82.94 96.3389 82.9911 96.2867 82.9911 96.2867L82.8602 96.465L82.4707 96.9741L80.9442 98.8813L75.317 106.018L75.2527 105.909L83.7494 104.797L84.0339 104.76L83.8142 104.943L74.2648 112.976L74.2817 112.847C75.6554 114.688 77.0083 116.633 78.3325 118.655C79.8421 120.995 81.2776 123.333 82.4911 125.676C82.7945 126.261 83.0978 126.839 83.3643 127.432L83.7749 128.306L84.156 129.189C84.415 129.77 84.6075 130.368 84.8147 130.954C85.0135 131.538 85.1634 132.136 85.2627 132.745C85.4408 133.914 85.5176 135.096 85.4922 136.278C85.4807 137.427 85.4096 138.539 85.3121 139.611C85.1059 141.756 84.7941 143.736 84.4652 145.536C83.8 149.137 83.0665 152.009 82.5511 153.988C82.286 154.974 82.0699 155.739 81.9173 156.256C81.839 156.507 81.7823 156.703 81.7397 156.843C81.697 156.984 81.6756 157.046 81.6756 157.046Z" fill="#263238"/>
<path d="M104.52 90.4735C104.52 90.4735 107.779 95.3346 108.116 95.669C108.116 95.669 121.667 99.3003 122.487 100.891C125.855 107.451 123.232 109.858 122.714 118.94C122.067 130.228 118.469 145.974 118.469 145.974C118.469 145.974 124.069 166.384 124.66 167.506C125.252 168.629 106.577 175.727 104.554 173.169C102.531 170.611 100.861 161.733 100.861 161.733C100.861 161.733 98.7842 143.678 99.4077 136.468C100.031 129.258 103.294 121.812 104.368 113.098C105.459 103.891 104.52 90.4735 104.52 90.4735Z" fill="#455A64"/>
<path d="M100.142 140.989C100.145 140.899 100.157 140.81 100.179 140.724C100.217 140.535 100.266 140.284 100.325 139.986C100.384 139.687 100.479 139.248 100.573 138.801C100.667 138.355 100.868 137.833 101.042 137.268C102.043 134.338 103.415 131.546 105.126 128.962C106.836 126.379 108.769 123.949 110.904 121.701C111.726 120.841 112.42 120.173 112.914 119.726C113.159 119.502 113.361 119.352 113.496 119.225C113.564 119.167 113.638 119.117 113.716 119.075C113.716 119.075 112.618 120.053 111.005 121.792C108.906 124.06 106.995 126.493 105.291 129.066C103.591 131.636 102.207 134.399 101.168 137.296C100.99 137.857 100.812 138.364 100.677 138.815C100.542 139.265 100.476 139.66 100.399 139.988C100.322 140.317 100.262 140.542 100.216 140.727C100.198 140.816 100.173 140.903 100.142 140.989Z" fill="#263238"/>
<path d="M108.104 95.8973C108.16 95.9747 108.207 96.0581 108.244 96.1458C108.335 96.3287 108.457 96.5737 108.623 96.8771C108.939 97.5356 109.383 98.4574 109.934 99.5877C110.21 100.163 110.509 100.788 110.831 101.461L111.332 102.503C111.5 102.869 111.689 103.235 111.831 103.623C112.443 105.191 113.116 106.919 113.823 108.71L115.406 112.783L115.444 112.882L115.341 112.905L111.743 113.727L111.794 113.616L113.656 117.552C113.866 118.013 114.037 118.383 114.162 118.65L114.288 118.943C114.305 118.975 114.317 119.01 114.323 119.045C114.3 119.017 114.281 118.987 114.266 118.954L114.118 118.673L113.576 117.594L111.654 113.684L111.609 113.596L111.708 113.573L115.298 112.729L115.237 112.851L113.632 108.801C112.932 106.995 112.266 105.278 111.658 103.714C111.516 103.314 111.33 102.952 111.163 102.59L110.676 101.544L109.816 99.6481C109.295 98.5101 108.865 97.5807 108.561 96.9184L108.23 96.1865C108.179 96.0938 108.137 95.9971 108.104 95.8973Z" fill="#263238"/>
<path d="M117.597 143.692C117.597 143.692 124.59 150.475 128.137 150.036C131.684 149.598 136.227 141.886 136.194 139.237C136.161 136.587 132.616 119.548 132.616 119.548L133.915 113.102L120.963 113.018L118.622 132.851L117.597 143.692Z" fill="#455A64"/>
<path d="M125.422 97.6927C125.413 97.7422 125.399 97.7905 125.379 97.8367L125.229 98.2471L124.978 98.9127C124.867 99.1718 124.745 99.4714 124.601 99.8044C124.309 100.474 123.927 101.285 123.447 102.204C122.966 103.123 122.361 104.142 121.635 105.226C119.927 107.773 117.895 110.089 115.59 112.118C114.235 113.323 112.775 114.405 111.227 115.353C109.566 116.384 107.745 117.137 105.838 117.581C103.919 118.02 101.922 117.998 100.013 117.514C99.1082 117.277 98.2407 116.916 97.4352 116.442C96.6673 115.982 95.9709 115.413 95.3677 114.753C94.2903 113.514 93.3605 112.155 92.597 110.703C91.8402 109.369 91.151 108.116 90.5738 106.945C90.0476 105.894 89.5879 104.81 89.1972 103.702C88.9071 102.863 88.6786 102.005 88.5137 101.134C88.3703 100.392 88.3013 99.6368 88.3077 98.8807C88.3123 98.9309 88.3129 98.9813 88.3096 99.0316C88.311 99.1383 88.3128 99.2818 88.341 99.4654C88.3893 100.021 88.4667 100.574 88.5727 101.122C88.7494 101.988 88.9877 102.839 89.2857 103.671C89.6858 104.77 90.1515 105.845 90.6804 106.889C91.2649 108.052 91.9614 109.298 92.7219 110.628C93.4832 112.067 94.409 113.414 95.481 114.642C96.0759 115.285 96.7608 115.841 97.5147 116.29C98.307 116.752 99.1593 117.103 100.048 117.333C101.927 117.806 103.892 117.826 105.78 117.394C107.667 116.953 109.468 116.209 111.114 115.192C112.654 114.252 114.107 113.179 115.459 111.987C117.758 109.973 119.789 107.675 121.504 105.15C122.231 104.074 122.832 103.054 123.339 102.154C123.846 101.253 124.216 100.439 124.519 99.776C124.666 99.4429 124.796 99.1469 124.911 98.8915L125.177 98.2331L125.346 97.8298C125.366 97.7814 125.391 97.7354 125.422 97.6927Z" fill="#263238"/>
<path d="M122.693 98.1981C122.629 98.2851 122.557 98.3661 122.478 98.44L121.843 99.1031L119.46 101.514L115.942 105.091C115.236 105.791 114.46 106.417 113.627 106.961C112.726 107.56 111.697 107.94 110.621 108.07C109.539 108.21 108.439 108.014 107.473 107.509C107.027 107.265 106.636 106.935 106.321 106.537C106.006 106.14 105.775 105.683 105.642 105.195C105.412 104.323 105.299 103.425 105.305 102.524C105.294 101.685 105.314 100.904 105.32 100.19C105.374 99.0703 105.281 97.9479 105.041 96.8522C104.959 96.5596 104.85 96.2752 104.716 96.0025C104.666 95.9074 104.621 95.8097 104.583 95.7097C104.647 95.7955 104.702 95.8873 104.749 95.9837C104.901 96.2526 105.022 96.5374 105.111 96.8329C105.382 97.9313 105.499 99.062 105.457 100.192C105.466 100.906 105.442 101.687 105.464 102.522C105.466 103.406 105.583 104.287 105.811 105.142C105.94 105.607 106.161 106.042 106.462 106.421C106.763 106.799 107.138 107.114 107.563 107.346C108.497 107.828 109.557 108.014 110.601 107.878C111.646 107.752 112.648 107.384 113.525 106.804C114.35 106.267 115.118 105.648 115.818 104.957C116.498 104.308 117.104 103.642 117.707 103.06C118.311 102.478 118.862 101.919 119.37 101.416L121.79 99.0448L122.452 98.4072C122.528 98.3327 122.609 98.2628 122.693 98.1981Z" fill="#263238"/>
<path d="M74.3234 148.832C74.311 148.801 74.3031 148.767 74.3 148.733L74.2518 148.436C74.2151 148.16 74.1621 147.775 74.0931 147.29C73.9545 146.276 73.7589 144.839 73.5183 143.068C73.0368 139.504 72.3569 134.578 71.7075 129.128C71.3808 126.401 71.1039 123.803 70.8706 121.432C70.6373 119.061 70.481 116.929 70.3806 115.13C70.3176 114.233 70.2814 113.42 70.2503 112.706C70.2191 111.993 70.1929 111.379 70.1864 110.867C70.18 110.356 70.1754 109.988 70.1719 109.708L70.1681 109.41C70.1643 109.376 70.1639 109.341 70.1668 109.307C70.172 109.34 70.1725 109.373 70.1681 109.406C70.1691 109.487 70.1703 109.587 70.1904 109.708C70.1939 109.987 70.2135 110.374 70.2493 110.866C70.2556 111.367 70.3002 111.97 70.3465 112.705C70.3927 113.441 70.436 114.231 70.5027 115.125C70.6215 116.919 70.8148 119.052 71.037 121.419C71.2592 123.786 71.5545 126.384 71.8738 129.111C72.5269 134.557 73.1846 139.484 73.6291 143.052C73.8438 144.827 74.0396 146.271 74.1448 147.282C74.1991 147.77 74.2409 148.156 74.2703 148.436C74.2719 148.558 74.2805 148.658 74.2963 148.733C74.3108 148.765 74.32 148.798 74.3234 148.832Z" fill="#263238"/>
<path d="M133.93 113.102L132.983 113.114L130.326 113.121L120.964 113.099L121.052 113.028C120.561 115.798 120.176 118.953 119.888 122.288C119.38 128.407 119.206 133.966 118.957 137.985C118.838 139.996 118.721 141.62 118.647 142.74C118.598 143.293 118.555 143.724 118.53 144.033C118.513 144.17 118.503 144.28 118.493 144.369C118.491 144.406 118.486 144.443 118.476 144.479C118.471 144.441 118.47 144.403 118.475 144.365C118.474 144.281 118.472 144.166 118.489 144.03C118.511 143.721 118.539 143.293 118.573 142.737C118.644 141.632 118.738 139.986 118.838 137.979C119.054 133.961 119.207 128.406 119.718 122.271C120.001 118.93 120.395 115.771 120.9 112.997L120.899 112.923L120.973 112.922L130.332 113.015L132.993 113.055L133.696 113.072L133.878 113.069C133.911 113.095 133.93 113.098 133.93 113.102Z" fill="#263238"/>
<path d="M130.825 117.807C131.385 117.8 131.833 117.343 131.826 116.786C131.819 116.23 131.36 115.784 130.8 115.791C130.24 115.798 129.792 116.255 129.799 116.812C129.806 117.369 130.265 117.814 130.825 117.807Z" fill="#E0E0E0"/>
<path d="M131.826 116.786C131.799 116.708 131.775 116.629 131.757 116.548C131.688 116.344 131.556 116.167 131.38 116.041C131.252 115.953 131.104 115.897 130.949 115.879C130.793 115.861 130.636 115.882 130.491 115.938C130.315 116.007 130.164 116.127 130.058 116.283C129.952 116.438 129.897 116.623 129.899 116.811C129.902 116.999 129.962 117.181 130.071 117.335C130.181 117.488 130.335 117.604 130.513 117.668C130.66 117.72 130.818 117.736 130.972 117.714C131.127 117.691 131.273 117.631 131.399 117.539C131.573 117.41 131.7 117.229 131.763 117.023C131.779 116.943 131.8 116.864 131.826 116.786C131.826 116.786 131.861 116.874 131.83 117.04C131.784 117.279 131.656 117.494 131.467 117.648C131.326 117.764 131.157 117.842 130.976 117.874C130.796 117.907 130.61 117.893 130.437 117.834C130.227 117.757 130.045 117.618 129.916 117.436C129.786 117.253 129.716 117.036 129.713 116.813C129.71 116.59 129.775 116.371 129.9 116.186C130.025 116 130.203 115.856 130.411 115.774C130.583 115.711 130.768 115.692 130.949 115.72C131.13 115.748 131.301 115.822 131.446 115.934C131.638 116.081 131.772 116.292 131.823 116.529C131.862 116.694 131.837 116.786 131.826 116.786Z" fill="#263238"/>
<path d="M102.402 149.204C102.962 149.197 103.41 148.74 103.403 148.183C103.396 147.627 102.937 147.181 102.377 147.188C101.817 147.195 101.369 147.652 101.376 148.209C101.383 148.766 101.842 149.211 102.402 149.204Z" fill="#E0E0E0"/>
<path d="M103.396 148.184C103.396 148.184 103.373 148.095 103.323 147.949C103.254 147.745 103.122 147.567 102.946 147.442C102.806 147.343 102.641 147.284 102.469 147.273C102.297 147.261 102.126 147.297 101.973 147.376C101.821 147.456 101.693 147.576 101.605 147.723C101.517 147.87 101.471 148.038 101.473 148.21C101.476 148.381 101.525 148.548 101.617 148.693C101.709 148.838 101.839 148.954 101.994 149.03C102.148 149.105 102.321 149.137 102.492 149.121C102.664 149.105 102.827 149.042 102.965 148.94C103.138 148.81 103.265 148.629 103.329 148.424C103.375 148.276 103.377 148.184 103.396 148.184C103.42 148.268 103.421 148.356 103.399 148.441C103.355 148.679 103.227 148.894 103.037 149.046C102.896 149.161 102.728 149.24 102.548 149.273C102.369 149.306 102.183 149.293 102.01 149.235C101.799 149.158 101.616 149.019 101.485 148.837C101.355 148.654 101.284 148.436 101.281 148.212C101.278 147.988 101.344 147.768 101.47 147.582C101.595 147.396 101.775 147.253 101.984 147.171C102.156 147.109 102.341 147.091 102.521 147.12C102.702 147.148 102.872 147.222 103.015 147.334C103.209 147.481 103.343 147.692 103.393 147.93C103.417 148.012 103.419 148.1 103.396 148.184Z" fill="#263238"/>
<path d="M105.694 163.52C105.697 163.72 105.639 163.916 105.53 164.084C105.42 164.252 105.263 164.384 105.078 164.463C104.893 164.542 104.689 164.564 104.491 164.528C104.293 164.491 104.11 164.397 103.966 164.257C103.822 164.117 103.723 163.938 103.681 163.743C103.64 163.547 103.657 163.343 103.732 163.157C103.807 162.971 103.935 162.812 104.101 162.698C104.267 162.585 104.463 162.523 104.664 162.521C104.934 162.517 105.194 162.621 105.387 162.808C105.58 162.995 105.691 163.251 105.694 163.52Z" fill="#E0E0E0"/>
<path d="M105.694 163.52C105.676 163.52 105.671 163.428 105.621 163.282C105.554 163.077 105.422 162.899 105.245 162.775C105.136 162.695 105.012 162.639 104.88 162.612C104.748 162.584 104.612 162.585 104.481 162.615C104.349 162.644 104.226 162.702 104.119 162.783C104.012 162.865 103.923 162.968 103.86 163.087C103.797 163.205 103.76 163.336 103.753 163.469C103.745 163.603 103.766 163.737 103.815 163.862C103.864 163.987 103.94 164.099 104.037 164.193C104.134 164.286 104.25 164.357 104.377 164.401C104.524 164.454 104.682 164.47 104.836 164.447C104.991 164.425 105.138 164.365 105.263 164.272C105.438 164.144 105.566 163.963 105.627 163.756C105.673 163.608 105.676 163.516 105.694 163.52C105.719 163.603 105.72 163.69 105.697 163.774C105.655 164.012 105.526 164.227 105.335 164.378C105.194 164.494 105.025 164.572 104.845 164.605C104.664 164.639 104.479 164.626 104.305 164.568C104.093 164.491 103.91 164.352 103.78 164.169C103.65 163.986 103.579 163.769 103.576 163.545C103.573 163.321 103.639 163.101 103.764 162.915C103.89 162.729 104.069 162.586 104.279 162.503C104.451 162.441 104.637 162.424 104.818 162.452C104.999 162.481 105.169 162.555 105.313 162.667C105.508 162.813 105.642 163.025 105.691 163.262C105.715 163.346 105.716 163.435 105.694 163.52Z" fill="#263238"/>
<path d="M132.638 119.547C132.639 119.603 129.981 119.555 126.716 119.449C123.451 119.343 120.793 119.211 120.792 119.155C120.792 119.1 123.449 119.148 126.714 119.258C129.979 119.367 132.637 119.496 132.638 119.547Z" fill="#263238"/>
<path d="M74.3454 139.992L70.5464 141.556L61.9806 120.988C61.5003 119.834 60.7962 118.786 59.9085 117.902C59.0208 117.019 57.9669 116.319 56.8069 115.841C55.6469 115.363 54.4035 115.116 53.1478 115.116C51.8921 115.116 50.6487 115.362 49.4884 115.84C48.3282 116.318 47.274 117.018 46.3858 117.901C45.4977 118.784 44.7932 119.833 44.3124 120.986C43.8316 122.14 43.584 123.377 43.5837 124.626C43.5834 125.875 43.8304 127.111 44.3107 128.265L52.8765 148.834L49.0775 150.401L40.508 129.833C39.8211 128.184 39.4675 126.416 39.4675 124.631C39.4675 122.845 39.821 121.077 40.5079 119.428C41.1948 117.778 42.2016 116.279 43.4709 115.017C44.7402 113.754 46.247 112.753 47.9054 112.069C49.5638 111.386 51.3412 111.034 53.1363 111.034C54.9313 111.033 56.7088 111.385 58.3672 112.068C61.7165 113.447 64.3775 116.093 65.7648 119.424L74.3454 139.992Z" fill="#E0E0E0"/>
<path d="M74.3455 139.992L74.1701 139.582L73.6702 138.378L71.7626 133.809C70.931 131.824 69.9127 129.416 68.7338 126.589C68.1438 125.183 67.5156 123.682 66.8492 122.086C66.1522 120.509 65.5825 118.749 64.5116 117.158C63.4007 115.483 61.9217 114.081 60.1862 113.057C59.9588 112.924 59.7351 112.787 59.5041 112.661L58.7819 112.321C58.2982 112.098 57.8015 111.903 57.2945 111.739C57.038 111.647 56.7673 111.599 56.5036 111.525C56.24 111.451 55.9726 111.373 55.6983 111.34C55.1474 111.238 54.5903 111.171 54.0307 111.14C52.8853 111.069 51.7354 111.138 50.6068 111.345L49.7547 111.555L49.3268 111.659L48.9067 111.804L48.0669 112.106C47.7907 112.216 47.5261 112.355 47.2539 112.484C45.0103 113.557 43.1099 115.228 41.7641 117.312C40.6919 118.964 39.9963 120.829 39.7261 122.776C39.4559 124.724 39.6177 126.707 40.2001 128.586C40.6231 129.861 41.194 131.116 41.7281 132.394L48.3098 148.195L49.2101 150.352L49.0837 150.302L52.8827 148.734L52.8325 148.86C51.127 144.77 49.4633 140.765 47.8418 136.877L45.4531 131.129L44.2856 128.328C43.9075 127.397 43.6671 126.415 43.5719 125.415C43.4173 123.458 43.8665 121.501 44.8593 119.805C44.9689 119.596 45.0898 119.393 45.2217 119.197L45.64 118.625C46.2374 117.904 46.9287 117.265 47.6957 116.726C47.8864 116.591 48.0886 116.481 48.2867 116.35L48.5806 116.173L48.8932 116.026C49.7086 115.623 50.577 115.338 51.4727 115.176C52.3436 115.029 53.23 114.994 54.1098 115.073C55.8026 115.248 57.4194 115.862 58.7982 116.855C60.1035 117.771 61.1479 119.008 61.8295 120.445C61.9094 120.617 61.9929 120.789 62.0728 120.957C62.1526 121.126 62.2178 121.305 62.2865 121.477L62.7138 122.499C62.9912 123.177 63.266 123.84 63.5381 124.487L66.4992 131.622C68.2777 135.928 69.6708 139.311 70.598 141.537L70.5608 141.519L73.4323 140.353L74.1356 140.072L74.3712 139.981L74.1505 140.079C73.9959 140.144 73.7824 140.238 73.4585 140.371L70.5836 141.57L70.5577 141.571L70.5574 141.545C69.619 139.312 68.2114 135.951 66.4109 131.66C65.5106 129.511 64.5037 127.128 63.4276 124.532L62.5997 122.548C62.4586 122.211 62.3137 121.871 62.1724 121.527L61.955 121.007C61.8752 120.838 61.7953 120.67 61.7118 120.502C61.3781 119.811 60.9624 119.163 60.4738 118.571C59.9564 117.969 59.3682 117.432 58.722 116.97C57.3607 116.002 55.7691 115.404 54.1044 115.235C53.2404 115.161 52.3704 115.196 51.5155 115.342C50.6391 115.503 49.7896 115.785 48.9914 116.179L48.686 116.323L48.3959 116.5C48.205 116.62 48.0029 116.729 47.8158 116.857C47.4415 117.12 47.0854 117.409 46.7499 117.72C46.41 118.033 46.0927 118.369 45.8004 118.726L45.3894 119.29C45.2437 119.476 45.1428 119.687 45.0268 119.884C44.0548 121.551 43.6156 123.473 43.7677 125.394C43.8639 126.375 44.1003 127.338 44.4697 128.252C44.8514 129.179 45.2332 130.116 45.641 131.057L48.0333 136.801L53.0276 148.784L53.0657 148.872L52.9774 148.91C51.7405 149.415 50.4705 149.942 49.1784 150.474L49.0863 150.512L49.0519 150.424L48.1515 148.264C45.8966 142.852 43.6987 137.566 41.5735 132.462C41.0505 131.181 40.4835 129.94 40.0453 128.635C39.6579 127.339 39.4542 125.995 39.44 124.643C39.4546 123.318 39.6484 122.001 40.0161 120.727C40.3977 119.489 40.9441 118.308 41.6408 117.214C43.0004 115.107 44.9193 113.416 47.1853 112.327C47.4649 112.202 47.7333 112.062 48.0131 111.948L48.8604 111.647C49.0041 111.601 49.144 111.544 49.2841 111.502L49.7194 111.397L50.5826 111.187C51.7257 110.976 52.8907 110.907 54.0509 110.982C54.6158 111.013 55.1778 111.083 55.7334 111.189C56.0088 111.235 56.2813 111.297 56.5498 111.373C56.8172 111.451 57.0917 111.499 57.3481 111.592C57.8669 111.761 58.3759 111.958 58.8727 112.183L59.6173 112.542C59.8483 112.668 60.0758 112.812 60.3031 112.942C62.055 113.981 63.5469 115.402 64.6662 117.097C65.7449 118.714 66.311 120.481 67.0044 122.066L68.8818 126.591C70.0496 129.414 71.0534 131.845 71.8776 133.833L73.7593 138.402L74.2479 139.589C74.2955 139.842 74.3455 139.992 74.3455 139.992Z" fill="#263238"/>
<path d="M72.1063 125.845L43.2363 137.746C41.3466 138.525 40.4494 140.68 41.2324 142.56L50.4569 164.701C51.2399 166.58 53.4066 167.472 55.2963 166.693L84.1663 154.792C86.056 154.013 86.9531 151.857 86.1702 149.978L76.9457 127.837C76.1627 125.958 73.996 125.066 72.1063 125.845Z" fill="#FF725E"/>
<g opacity="0.3">
<path d="M71.9764 125.898L43.3662 137.693C41.4048 138.501 40.4735 140.738 41.2862 142.689L50.4031 164.572C51.2158 166.522 53.4647 167.448 55.4261 166.64L84.0364 154.845C85.9978 154.037 86.9291 151.8 86.1163 149.849L76.9995 127.966C76.1868 126.015 73.9379 125.09 71.9764 125.898Z" fill="black"/>
</g>
<path d="M67.91 127.574L41.6002 138.42C39.7162 139.197 38.8217 141.345 39.6023 143.219L48.8353 165.381C49.616 167.254 51.7761 168.144 53.6601 167.367L79.9699 156.521C81.854 155.744 82.7485 153.596 81.9678 151.722L72.7348 129.56C71.9542 127.687 69.794 126.797 67.91 127.574Z" fill="#FF725E"/>
<g opacity="0.3">
<path d="M64.3188 143.026C64.0087 142.272 63.493 141.619 62.8298 141.14C62.1667 140.662 61.3825 140.378 60.5654 140.319C59.7484 140.26 58.931 140.429 58.2054 140.807C57.4798 141.186 56.8747 141.758 56.4584 142.459C56.042 143.161 55.8309 143.965 55.8488 144.779C55.8667 145.594 56.1129 146.387 56.5597 147.07C57.0065 147.753 57.6362 148.298 58.3777 148.644C59.1193 148.99 59.9433 149.123 60.7569 149.029L62.8135 153.971C62.9364 154.263 63.1706 154.495 63.4648 154.615C63.759 154.736 64.0892 154.735 64.3832 154.614C64.5287 154.554 64.6609 154.467 64.7724 154.356C64.8838 154.245 64.9722 154.114 65.0326 153.969C65.093 153.825 65.1241 153.67 65.1242 153.513C65.1244 153.356 65.0935 153.201 65.0333 153.057L62.973 148.114C63.7233 147.527 64.2606 146.712 64.5034 145.794C64.7463 144.876 64.6815 143.904 64.3188 143.026Z" fill="black"/>
</g>
<path d="M82.2609 152.395C82.2094 152.414 80.0924 147.38 77.5312 141.152C74.97 134.924 72.9266 129.856 72.9782 129.837C73.0297 129.818 75.143 134.852 77.7079 141.08C80.2728 147.308 82.3088 152.376 82.2609 152.395Z" fill="#263238"/>
<path d="M64.0771 148.52C64.4745 148.098 64.819 147.631 65.103 147.127C65.3957 146.574 65.5885 145.975 65.6728 145.357C65.7896 144.602 65.7231 143.831 65.4791 143.107C65.235 142.384 64.8204 141.729 64.2699 141.197C63.8305 140.749 63.3148 140.382 62.7466 140.112C62.2133 139.882 61.6548 139.715 61.0826 139.614C61.2409 139.603 61.4 139.611 61.5565 139.638C61.986 139.696 62.4049 139.814 62.8005 139.99C63.3942 140.251 63.9344 140.619 64.3942 141.074C64.9712 141.621 65.4052 142.3 65.6584 143.052C65.9116 143.803 65.9764 144.605 65.8471 145.388C65.754 146.024 65.5421 146.637 65.2223 147.195C65.0127 147.573 64.7491 147.918 64.4396 148.221C64.3321 148.335 64.2102 148.436 64.0771 148.52Z" fill="#263238"/>
<path d="M64.0207 130.207C64.0398 130.255 59.6238 132.191 54.1546 134.531C48.6854 136.87 44.2166 138.73 44.216 138.682C44.2154 138.634 48.6129 136.698 54.0858 134.355C59.5586 132.012 63.9979 130.16 64.0207 130.207Z" fill="white"/>
<path d="M56.9663 148.609C56.8655 148.562 56.7724 148.5 56.6902 148.425C56.4583 148.235 56.2473 148.022 56.0605 147.789C55.4256 147.017 55.0432 146.07 54.9646 145.076C54.886 144.082 55.1148 143.087 55.6205 142.226C55.7704 141.967 55.9472 141.724 56.148 141.502C56.2153 141.414 56.2969 141.339 56.3894 141.278C56.4193 141.303 56.0869 141.65 55.7398 142.291C55.2821 143.139 55.0785 144.1 55.1528 145.06C55.2272 146.02 55.5765 146.938 56.1594 147.707C56.6109 148.301 56.9881 148.579 56.9663 148.609Z" fill="white"/>
<path d="M59.3835 149.859C59.3842 149.915 59.0956 149.915 58.7583 149.867C58.4209 149.82 58.1497 149.731 58.1601 149.676C58.1705 149.621 58.4481 149.625 58.7854 149.668C59.1226 149.712 59.3829 149.808 59.3835 149.859Z" fill="white"/>
<path d="M46.9721 113.319C46.7647 113.456 46.5501 113.581 46.3293 113.695C45.7474 114.038 45.1942 114.426 44.675 114.857C42.7036 116.511 41.3174 118.749 40.72 121.244C40.1227 123.739 40.3457 126.359 41.3563 128.718C41.5431 129.158 41.6608 129.395 41.6461 129.403C41.6058 129.352 41.5716 129.297 41.5441 129.239C41.4835 129.129 41.3853 128.968 41.2863 128.749C40.994 128.134 40.7605 127.494 40.5888 126.836C39.998 124.652 40.0629 122.342 40.7756 120.194C41.4883 118.045 42.8176 116.151 44.5996 114.744C45.1305 114.317 45.7006 113.94 46.3024 113.619C46.5155 113.502 46.6886 113.43 46.8026 113.377C46.8571 113.352 46.9139 113.333 46.9721 113.319Z" fill="white"/>
<path d="M42.8207 133.072C42.5948 132.762 42.4205 132.417 42.3047 132.052C42.1311 131.706 42.0164 131.335 41.9652 130.952C42.1945 131.26 42.3691 131.605 42.4813 131.972C42.6544 132.318 42.7691 132.689 42.8207 133.072Z" fill="white"/>
<g opacity="0.3">
<path d="M70.2286 110.981C68.6269 115.73 69.5151 121.037 71.4237 125.687C71.4236 125.672 70.3353 115.929 70.2286 110.981Z" fill="black"/>
</g>
<g opacity="0.3">
<path d="M99.7498 145.134C101.529 140.997 103.313 136.846 105.625 132.978C107.937 129.11 110.71 125.428 114.283 122.686C115.251 121.938 117.058 120.546 117.058 120.546C117.058 120.546 116.558 119.632 116.067 118.876C115.501 118 114.557 116.481 114.059 115.733L116.229 116.136C116.229 116.136 114.706 112.762 114.75 112.99C113.786 113.252 112.809 113.465 111.824 113.626C112.605 115.42 113.432 117.04 114.213 118.833C110.184 122.104 106.905 126.197 104.169 130.516C101.433 134.834 99.5647 139.83 99.7287 144.925" fill="black"/>
</g>
<path d="M106.674 80.4618C106.721 80.4207 106.837 80.4597 106.968 80.6016C107.145 80.8217 107.237 81.097 107.229 81.3785C107.232 81.5814 107.192 81.7826 107.111 81.9689C107.011 82.1944 106.857 82.3923 106.663 82.5449C106.442 82.7233 106.178 82.8416 105.897 82.8882C105.617 82.9349 105.328 82.9084 105.061 82.8113C104.794 82.7142 104.556 82.5498 104.372 82.3342C104.187 82.1185 104.062 81.859 104.009 81.581C103.963 81.3612 103.967 81.1339 104.023 80.9163C104.079 80.6987 104.184 80.4967 104.33 80.3256C104.507 80.1071 104.755 79.9568 105.031 79.9009C105.227 79.8727 105.335 79.9192 105.351 79.9816C105.382 80.1137 105.066 80.2869 104.897 80.7012C104.802 80.9116 104.792 81.1501 104.868 81.3677C104.907 81.4929 104.974 81.6074 105.065 81.7023C105.155 81.7971 105.267 81.8697 105.391 81.9142C105.514 81.9587 105.647 81.974 105.777 81.9587C105.908 81.9435 106.033 81.8982 106.143 81.8265C106.343 81.7111 106.491 81.5233 106.555 81.3024C106.69 80.8774 106.56 80.5515 106.674 80.4618Z" fill="#E0E0E0"/>
<path d="M40.8497 159.945C40.8497 159.945 42.1622 163.976 42.8236 164.781C43.485 165.587 47.845 165.97 47.845 165.97L40.8497 159.945Z" fill="#B5715A"/>
<path d="M45.9854 153.447L48.4256 155.345L55.6647 160.752C55.6647 160.752 55.637 162.077 54.0201 161.796C52.7073 161.566 49.783 160.009 49.783 160.009C49.783 160.009 53.2342 163.153 53.3713 164.641L53.3748 164.914C53.3759 165.244 53.2471 165.561 53.0159 165.798L48.998 163.202C48.998 163.202 49.8714 164.686 50.7307 166.224C50.8608 166.534 50.9062 166.872 50.8623 167.205C50.8184 167.538 50.6867 167.853 50.4807 168.119L41.5083 160.823L41.3834 155.304L45.9669 153.443" fill="#B5715A"/>
<path d="M45.0854 156.918C45.1997 156.924 45.3123 156.947 45.4193 156.987C45.5234 157.023 45.6462 157.076 45.7913 157.137C45.9363 157.198 46.0855 157.288 46.2569 157.381C46.9352 157.77 47.7979 158.404 48.754 159.098C49.5545 159.701 50.396 160.249 51.2723 160.737C51.9539 161.097 52.4145 161.231 52.389 161.264C52.276 161.258 52.1646 161.235 52.0588 161.195C51.9323 161.16 51.8082 161.117 51.6871 161.067C51.5221 161.007 51.3606 160.938 51.2035 160.86C50.2977 160.403 49.4352 159.865 48.6264 159.254C47.6704 158.556 46.8259 157.908 46.1732 157.497L45.7296 157.233L45.3795 157.058C45.2761 157.023 45.1773 156.976 45.0854 156.918Z" fill="#884C3B"/>
<path d="M44.3054 159.618C44.5803 159.744 44.8404 159.9 45.0809 160.083C45.5399 160.39 46.1598 160.838 46.8213 161.36C47.4828 161.882 48.0626 162.379 48.4707 162.753C48.7035 162.94 48.9136 163.153 49.0966 163.389C48.8395 163.237 48.5991 163.059 48.3795 162.857L46.7011 161.509L45.0009 160.191C44.7502 160.023 44.5172 159.832 44.3054 159.618Z" fill="#884C3B"/>
<path d="M32.2446 153.023C32.1826 153.094 32.2767 153.225 32.3375 153.35C33.3283 155.343 41.6836 160.935 41.6836 160.935L46.1047 153.221C46.1047 153.221 49.4062 154.758 50.7483 154.377C51.8544 154.061 53.9382 153.811 52.9371 151.887C52.9371 151.887 48.2982 151.099 46.7173 150.446C45.1365 149.792 44.148 149.455 44.148 149.455C42.3528 149.52 40.5564 149.366 38.799 148.996C38.799 148.996 36.0267 148.644 32.2446 153.023Z" fill="#B5715A"/>
<path d="M50.2677 167.941C49.8975 167.7 49.5443 167.434 49.2105 167.145C48.5228 166.605 47.6557 165.921 46.6916 165.167C45.7274 164.414 44.8227 163.678 44.2091 163.141C43.8987 162.876 43.6517 162.655 43.4832 162.499C43.3897 162.424 43.3065 162.337 43.2357 162.241C43.6076 162.481 43.962 162.747 44.2966 163.037L46.8118 165.015C47.7947 165.79 48.6807 166.504 49.2943 167.041C49.6047 167.306 49.8554 167.527 50.0202 167.683C50.185 167.839 50.2787 167.934 50.2677 167.941Z" fill="#884C3B"/>
<path d="M126.887 85.3305L129.745 85.7399L130.062 83.5682L128.95 83.4093L129.093 82.4211L128.062 82.2722L128.188 81.4057L129.378 81.5748L129.487 80.8373L127.582 80.5632L127.623 80.2793C127.636 80.1002 127.577 79.9232 127.46 79.7868C127.342 79.6504 127.175 79.5657 126.995 79.5511C126.816 79.5418 126.64 79.6014 126.504 79.7175C126.368 79.8336 126.282 79.9974 126.263 80.1749C125.755 83.6899 125.245 87.2011 124.734 90.7088L124.326 93.5183C123.404 93.5548 122.529 93.9325 121.872 94.5773C121.216 95.2221 120.826 96.0875 120.777 97.0038C120.729 97.9201 121.027 98.8212 121.612 99.5304C122.197 100.24 123.028 100.706 123.941 100.837C124.854 100.969 125.784 100.757 126.547 100.242C127.311 99.7273 127.854 98.9474 128.07 98.0553C128.285 97.1631 128.158 96.223 127.713 95.4194C127.268 94.6158 126.537 94.0066 125.664 93.7112C126.059 91.0074 126.453 88.3035 126.846 85.5997L126.887 85.3305ZM127.2 97.5783C127.122 98.1133 126.886 98.6133 126.522 99.0151C126.159 99.4169 125.683 99.7025 125.157 99.8357C124.63 99.969 124.075 99.9439 123.563 99.7637C123.05 99.5835 122.603 99.2562 122.278 98.8232C121.952 98.3903 121.763 97.8711 121.734 97.3312C121.705 96.7914 121.838 96.2551 122.116 95.7902C122.393 95.3253 122.803 94.9527 123.293 94.7193C123.784 94.486 124.332 94.4025 124.87 94.4793C125.229 94.5308 125.574 94.6522 125.885 94.8365C126.196 95.0207 126.468 95.2643 126.684 95.5533C126.901 95.8422 127.058 96.1708 127.146 96.5201C127.235 96.8695 127.253 97.2329 127.2 97.5893L127.2 97.5783Z" fill="#E0E0E0"/>
<path d="M127.2 97.5893C127.217 97.1999 127.171 96.8103 127.063 96.4354C126.932 96.0108 126.694 95.6263 126.372 95.318C125.962 94.9145 125.432 94.6539 124.861 94.5752L124.907 94.4163L125.483 94.6593L124.861 94.5752C124.374 94.507 123.879 94.5739 123.428 94.7687C122.978 94.9634 122.591 95.2783 122.309 95.6785C122.028 96.0787 121.863 96.5485 121.833 97.036C121.804 97.5235 121.91 98.0096 122.141 98.4405C122.384 98.9055 122.763 99.2858 123.228 99.531C123.62 99.7428 124.059 99.8538 124.505 99.854C124.951 99.8541 125.389 99.7435 125.781 99.532C126.316 99.2411 126.74 98.783 126.986 98.2287C127.069 98.0208 127.14 97.8086 127.2 97.593C127.209 97.6503 127.21 97.7085 127.202 97.766C127.177 97.9339 127.133 98.0985 127.072 98.2571C126.842 98.8454 126.416 99.337 125.864 99.6487C125.537 99.8327 125.176 99.9499 124.802 99.9932C124.429 100.037 124.05 100.005 123.689 99.9011C123.328 99.797 122.991 99.6221 122.699 99.3868C122.407 99.1515 122.165 98.8605 121.987 98.5308C121.74 98.0708 121.626 97.5517 121.658 97.0311C121.69 96.5105 121.866 96.0089 122.168 95.5822C122.469 95.1554 122.884 94.8201 123.365 94.6137C123.847 94.4072 124.377 94.3377 124.896 94.4128L124.849 94.5716L124.247 94.3069L124.896 94.4128C125.499 94.5044 126.056 94.7894 126.482 95.2246C126.809 95.5556 127.046 95.9643 127.17 96.412C127.248 96.6969 127.279 96.9921 127.263 97.2868C127.253 97.3896 127.232 97.4911 127.2 97.5893Z" fill="#263238"/>
<path d="M126.887 85.3305C126.887 85.3305 126.888 85.4189 126.861 85.5959C126.767 86.3957 126.356 89.3414 125.734 93.7067L125.692 93.6336C126.547 93.94 127.259 94.547 127.694 95.3399C128.13 96.1328 128.258 97.0568 128.056 97.9375C127.853 98.8182 127.333 99.5947 126.594 100.12C125.855 100.646 124.949 100.885 124.045 100.791C123.142 100.698 122.304 100.278 121.69 99.6126C121.076 98.9468 120.729 98.0805 120.713 97.1771C120.697 96.2738 121.014 95.396 121.605 94.7093C122.195 94.0226 123.018 93.5746 123.918 93.4498C124.054 93.426 124.191 93.4206 124.324 93.4079L124.233 93.49C124.669 90.5108 125.088 87.6386 125.48 84.9471C125.677 83.6013 125.868 82.2998 126.052 81.0535C126.096 80.7401 126.144 80.4341 126.189 80.128C126.212 79.9582 126.29 79.8007 126.413 79.68C126.535 79.5593 126.694 79.4822 126.865 79.4608C127.032 79.4427 127.201 79.4803 127.345 79.5677C127.488 79.6551 127.599 79.7874 127.659 79.9439C127.709 80.0968 127.711 80.2609 127.665 80.4149L127.666 80.5216L127.667 80.5511L127.507 80.531L127.507 80.5089L127.506 80.4574L127.541 80.2435L127.696 80.2673L127.656 80.5512L127.588 80.4637L129.493 80.7416L129.567 80.7406L129.568 80.8142C129.527 81.0797 129.493 81.3231 129.455 81.5517L129.456 81.6216L129.386 81.6225L128.196 81.4461L128.273 81.3899C128.225 81.7034 128.184 81.9836 128.143 82.2564L128.087 82.1835L129.121 82.3361L129.18 82.3354L129.181 82.3979C129.127 82.7667 129.079 83.0764 129.031 83.3825L128.982 83.3168L130.094 83.4832L130.146 83.4825L130.146 83.5341C130.019 84.3601 129.904 85.0841 129.804 85.7061L129.804 85.7465L129.764 85.7471L127.654 85.4056L127.101 85.3168L126.912 85.2824L127.09 85.2802L127.635 85.3506L129.777 85.6328L129.729 85.6665C129.818 85.0434 129.916 84.3209 130.031 83.495L130.076 83.5533L128.964 83.4017L128.909 83.4024L128.908 83.3472L129.047 82.3591L129.1 82.4284L128.07 82.2831L128.003 82.284L128.002 82.2214C128.039 81.9449 128.08 81.6647 128.125 81.3513L128.124 81.2851L128.19 81.2842L129.384 81.4496L129.299 81.5095C129.337 81.2698 129.371 81.0265 129.409 80.7721L129.473 80.8559L127.564 80.5855L127.486 80.5865L127.485 80.5092L127.526 80.2216L127.681 80.2454L127.651 80.4593L127.651 80.5108L127.652 80.5329C127.333 80.4854 127.567 80.5339 127.492 80.5054L127.492 80.4797L127.491 80.373C127.528 80.2454 127.526 80.1095 127.486 79.9829C127.439 79.8601 127.352 79.7562 127.239 79.6876C127.127 79.6191 126.994 79.5898 126.863 79.6043C126.728 79.6212 126.603 79.6825 126.507 79.7784C126.411 79.8742 126.349 79.9993 126.333 80.1336L126.2 81.0553L125.639 84.9525C125.251 87.6439 124.832 90.5162 124.403 93.4952L124.404 93.5688L124.323 93.5698C124.197 93.5714 124.064 93.5731 123.934 93.6078C123.2 93.7174 122.518 94.0497 121.981 94.5596C121.444 95.0694 121.078 95.7317 120.933 96.4561C120.789 97.1804 120.873 97.9314 121.174 98.6063C121.475 99.2813 121.979 99.8472 122.615 100.227C123.403 100.699 124.342 100.853 125.241 100.658C126.01 100.486 126.703 100.07 127.214 99.4711C127.724 98.8726 128.024 98.125 128.069 97.3415C128.114 96.558 127.9 95.7814 127.461 95.1297C127.021 94.4779 126.38 93.9865 125.634 93.73L125.582 93.7123L125.582 93.6571C126.23 89.2914 126.678 86.3489 126.812 85.5449C126.869 85.4007 126.887 85.3305 126.887 85.3305Z" fill="#263238"/>
<path d="M120.739 96.0733L125.297 94.8199L127.676 95.0918C127.892 95.1177 128.098 95.1975 128.275 95.324C128.452 95.4505 128.594 95.6194 128.687 95.8151L130.268 99.1296C130.268 99.1296 132.511 100.942 132.27 102.049C132.029 103.156 130.092 113.087 130.092 113.087L123.96 112.981C122.871 111.672 122.206 110.066 122.052 108.375C121.968 106.985 122.49 106.128 122.347 105.394C122.252 104.891 122.555 103.989 122.691 103.295L122.867 102.623L122.463 102.823C122.289 102.91 122.097 102.955 121.903 102.955C121.708 102.954 121.517 102.909 121.343 102.821C121.17 102.733 121.02 102.606 120.905 102.45C120.791 102.294 120.714 102.113 120.683 101.922C120.681 101.886 120.68 101.851 120.681 101.815C120.656 101.424 120.715 101.031 120.854 100.664C120.993 100.297 121.209 99.9633 121.487 99.6853L123.771 97.3969C123.771 97.3969 121.233 98.8789 120.739 96.0733Z" fill="#B5715A"/>
<path d="M128.589 101.506C128.446 101.51 128.302 101.496 128.163 101.464L127.024 101.276L125.337 100.973C125.022 100.918 124.688 100.838 124.351 100.812C124.186 100.787 124.017 100.802 123.859 100.854C123.701 100.907 123.557 100.996 123.441 101.114C123.245 101.396 123.122 101.721 123.082 102.061C123.013 102.404 122.947 102.733 122.884 103.05C122.747 103.595 122.654 104.15 122.605 104.71C122.598 104.893 122.635 105.076 122.714 105.242C122.793 105.408 122.911 105.553 123.057 105.664C123.172 105.736 123.298 105.788 123.429 105.818C123.393 105.829 123.355 105.829 123.318 105.819C123.209 105.812 123.103 105.778 123.01 105.72C122.841 105.612 122.702 105.463 122.606 105.288C122.51 105.112 122.46 104.915 122.461 104.715C122.487 104.142 122.567 103.574 122.699 103.015C122.757 102.698 122.82 102.366 122.886 102.027C122.933 101.651 123.076 101.293 123.302 100.987C123.439 100.847 123.607 100.741 123.793 100.679C123.978 100.616 124.177 100.599 124.371 100.628C124.71 100.666 125.047 100.723 125.379 100.799L127.056 101.146L128.169 101.394C128.313 101.414 128.454 101.452 128.589 101.506Z" fill="#884C3B"/>
<path d="M126.27 106.57C126.27 106.57 126.272 106.758 126.041 106.941C125.893 107.044 125.716 107.096 125.536 107.091C125.308 107.082 125.082 107.041 124.865 106.97C124.275 106.829 123.753 106.487 123.391 106.003C123.21 105.678 123.11 105.315 123.1 104.944C123.09 104.573 123.171 104.206 123.335 103.872C123.474 103.521 123.661 103.19 123.892 102.89C124.013 102.741 124.171 102.626 124.35 102.557C124.524 102.501 124.709 102.486 124.89 102.513C125.469 102.624 126.034 102.795 126.577 103.026C126.941 103.174 127.296 103.346 127.638 103.542C127.773 103.604 127.899 103.685 128.011 103.784C128.011 103.814 127.467 103.497 126.541 103.151C126.005 102.945 125.45 102.789 124.885 102.686C124.731 102.665 124.574 102.68 124.427 102.729C124.282 102.791 124.156 102.889 124.06 103.013C123.845 103.298 123.67 103.611 123.539 103.943C123.386 104.249 123.309 104.586 123.313 104.927C123.318 105.268 123.403 105.603 123.564 105.905C123.898 106.361 124.378 106.691 124.926 106.841C125.131 106.915 125.344 106.963 125.561 106.984C125.721 106.996 125.882 106.959 126.022 106.878C126.131 106.8 126.217 106.693 126.27 106.57Z" fill="#884C3B"/>
<path d="M126.202 105.908C126.202 105.93 126.096 105.994 125.889 106.019C125.619 106.049 125.346 106.001 125.104 105.88C124.861 105.759 124.659 105.57 124.522 105.337C124.42 105.162 124.404 105.033 124.426 105.025C124.448 105.018 124.679 105.456 125.193 105.708C125.515 105.833 125.856 105.9 126.202 105.908Z" fill="#884C3B"/>
<path d="M126.661 107.135C126.632 107.176 126.342 107.011 126.13 106.671C125.919 106.331 125.889 105.997 125.94 105.993C125.992 105.988 126.099 106.263 126.292 106.57C126.484 106.876 126.698 107.091 126.661 107.135Z" fill="#884C3B"/>
<path d="M126.582 110.511C126.32 109.996 126.189 109.424 126.201 108.847C126.212 108.269 126.366 107.703 126.647 107.198C126.523 107.741 126.439 108.292 126.394 108.846C126.416 109.405 126.479 109.962 126.582 110.511Z" fill="#884C3B"/>
<path d="M126.429 107.499C125.895 107.717 125.41 108.038 125.002 108.444C124.594 108.851 124.272 109.334 124.054 109.866C124.048 109.689 124.086 109.514 124.166 109.357C124.326 108.964 124.563 108.607 124.863 108.306C125.163 108.007 125.522 107.77 125.916 107.612C126.074 107.531 126.251 107.492 126.429 107.499Z" fill="#884C3B"/>
<path d="M124.455 99.9461C124.51 99.9454 124.542 100.133 124.482 100.347C124.422 100.561 124.301 100.717 124.253 100.681C124.204 100.645 124.25 100.49 124.296 100.312C124.342 100.135 124.403 99.9431 124.455 99.9461Z" fill="#884C3B"/>
<path d="M129.894 99.944C129.573 99.8146 129.265 99.6558 128.974 99.4698C128.415 99.1603 127.655 98.7172 126.823 98.2161C126.441 97.9766 126.037 97.7734 125.617 97.6093C125.276 97.4819 124.913 97.4238 124.549 97.4387C124.213 97.4662 123.886 97.5604 123.587 97.7157C123.587 97.7157 123.645 97.6304 123.803 97.5364C124.028 97.4057 124.28 97.326 124.54 97.3026C124.923 97.269 125.31 97.3168 125.674 97.4429C126.111 97.6007 126.529 97.8052 126.921 98.0529C127.756 98.5503 128.506 99.0119 129.043 99.3548C129.344 99.5258 129.628 99.7229 129.894 99.944Z" fill="#884C3B"/>
<path d="M126.885 85.4483C126.902 84.6132 126.983 83.7805 127.127 82.9574C127.206 82.1259 127.352 81.302 127.562 80.4935C127.545 81.3287 127.463 82.1614 127.32 82.9844C127.238 83.8156 127.093 84.6393 126.885 85.4483Z" fill="#263238"/>
<g opacity="0.3">
<path d="M127.564 80.6186C127.768 81.3879 127.816 82.1902 127.703 82.978C127.59 83.7658 127.32 84.5231 126.907 85.2052C127.157 83.8587 127.4 82.0376 127.564 80.6186Z" fill="black"/>
</g>
<path d="M169.356 145.716C168.485 144.903 167.421 144.32 166.264 144.023C165.107 143.725 163.893 143.722 162.734 144.015C161.575 144.307 160.509 144.884 159.634 145.694C158.758 146.504 158.102 147.52 157.726 148.649L158.61 151.883C158.918 150.776 159.593 149.696 160.649 149.226C161.705 148.757 163.033 148.994 164.17 149.388C165.307 149.782 166.424 150.313 167.627 150.372C168.83 150.43 170.177 149.846 170.522 148.701C170.845 147.622 170.18 146.486 169.356 145.716Z" fill="#FF725E"/>
<g opacity="0.3">
<path d="M169.356 145.716C168.485 144.903 167.421 144.32 166.264 144.023C165.107 143.725 163.893 143.722 162.734 144.015C161.575 144.307 160.509 144.884 159.634 145.694C158.758 146.504 158.102 147.52 157.726 148.649L158.61 151.883C158.918 150.776 159.593 149.696 160.649 149.226C161.705 148.757 163.033 148.994 164.17 149.388C165.307 149.782 166.424 150.313 167.627 150.372C168.83 150.43 170.177 149.846 170.522 148.701C170.845 147.622 170.18 146.486 169.356 145.716Z" fill="black"/>
</g>
<path d="M149.151 156.802C147.369 155.16 147.421 152.26 148.27 149.993C149.118 147.726 151.02 145.973 153.148 144.805C155.227 143.686 157.534 143.049 159.895 142.943C162.257 142.836 164.612 143.264 166.783 144.192C165.727 144.251 164.7 144.566 163.795 145.111C162.889 145.655 162.131 146.412 161.587 147.316C160.641 148.925 160.451 150.863 159.673 152.558C158.798 154.471 157.22 155.977 155.262 156.766C153.305 157.555 151.117 157.568 149.151 156.802Z" fill="#FF725E"/>
<path d="M148.178 146.807C146.199 144.539 145.883 140.866 146.141 137.871C146.4 134.876 147.05 131.865 146.539 128.905C146.236 127.149 145.531 125.48 145.279 123.72C145.027 121.961 145.328 119.958 146.697 118.804C148.261 117.474 150.754 117.752 152.409 118.96C154.063 120.169 155.038 122.089 155.765 124.004C157.347 128.209 157.968 132.89 156.764 137.222C155.561 141.554 152.668 145.448 148.374 146.805" fill="#FF725E"/>
<path d="M147.478 165.618C147.472 165.53 147.471 165.442 147.475 165.354C147.473 165.181 147.47 164.927 147.466 164.596C147.483 163.94 147.534 162.986 147.667 161.818C147.821 160.454 148.051 159.099 148.356 157.761C148.735 156.111 149.338 154.52 150.147 153.031C150.965 151.547 151.971 150.174 153.141 148.945C154.096 147.942 155.157 147.043 156.304 146.263C156.785 145.922 157.255 145.662 157.659 145.422C158.063 145.181 158.431 145.018 158.729 144.871L159.428 144.568C159.507 144.527 159.59 144.495 159.675 144.473C159.599 144.519 159.521 144.561 159.44 144.597L158.756 144.926C158.465 145.08 158.109 145.273 157.701 145.499C157.293 145.725 156.845 146.014 156.368 146.358C153.846 148.115 151.765 150.427 150.289 153.114C148.534 156.257 148.083 159.546 147.757 161.85C147.608 163.015 147.539 163.962 147.503 164.617C147.488 164.934 147.477 165.188 147.468 165.372C147.479 165.454 147.482 165.536 147.478 165.618Z" fill="#263238"/>
<path d="M130.28 137.993C126.696 140.206 126.736 142.178 127.359 144.029C127.981 145.88 130.217 147.151 132.047 146.428C133.082 146.022 133.822 145.114 134.454 144.19C135.086 143.266 135.677 142.305 136.568 141.646C137.182 141.182 137.945 140.955 138.714 141.008L130.28 137.993Z" fill="#FF725E"/>
<g opacity="0.3">
<path d="M130.28 137.993C126.696 140.206 126.736 142.178 127.359 144.029C127.981 145.88 130.217 147.151 132.047 146.428C133.082 146.022 133.822 145.114 134.454 144.19C135.086 143.266 135.677 142.305 136.568 141.646C137.182 141.182 137.945 140.955 138.714 141.008L130.28 137.993Z" fill="black"/>
</g>
<path d="M127.566 140.501C128.493 139.193 130.823 138.785 132.303 139.414C133.784 140.043 134.88 141.314 135.862 142.586C136.844 143.858 137.801 145.197 139.147 146.07C140.494 146.944 142.37 147.244 143.691 146.33C144.112 146.009 144.464 145.607 144.723 145.147C144.983 144.686 145.145 144.178 145.2 143.654C145.304 142.604 145.218 141.544 144.946 140.525C144.609 139.024 144.072 137.459 142.846 136.503C141.482 135.457 139.61 135.44 137.886 135.506C135.908 135.597 133.904 135.769 132.055 136.473C130.207 137.177 128.331 138.673 127.566 140.49" fill="#FF725E"/>
<path d="M144.442 162.779C144.442 162.779 144.441 162.753 144.441 162.701L144.438 162.47C144.435 162.252 144.413 161.955 144.397 161.579C144.365 160.792 144.318 159.674 144.26 158.302C144.202 156.93 144.122 155.271 143.999 153.447C143.876 151.623 143.71 149.612 143.406 147.526C143.277 146.509 143.063 145.505 142.769 144.523C142.187 142.797 141.314 141.183 140.185 139.749C139.714 139.162 139.198 138.613 138.64 138.105C137.825 137.373 136.906 136.765 135.913 136.299C135.738 136.221 135.581 136.145 135.444 136.092L135.072 135.96L134.856 135.875C134.808 135.853 134.782 135.843 134.786 135.839L134.86 135.86L135.083 135.927L135.454 136.048C135.596 136.097 135.752 136.169 135.934 136.244C136.944 136.691 137.879 137.287 138.709 138.012C139.276 138.519 139.802 139.07 140.281 139.66C140.829 140.346 141.315 141.079 141.733 141.85C142.194 142.694 142.577 143.579 142.876 144.493C143.175 145.481 143.391 146.493 143.521 147.517C143.828 149.615 143.983 151.622 144.102 153.45C144.222 155.277 144.283 156.929 144.33 158.312C144.377 159.695 144.402 160.818 144.416 161.59L144.427 162.484C144.428 162.576 144.429 162.654 144.43 162.716C144.436 162.737 144.44 162.758 144.442 162.779Z" fill="#263238"/>
<path d="M145.761 164.385C145.584 163.884 145.445 163.37 145.345 162.848C145.079 161.421 145.006 159.965 145.128 158.519C145.321 156.376 145.756 154.26 146.425 152.213C147.136 149.893 148.112 147.408 148.922 144.744C149.329 143.449 149.658 142.131 149.908 140.797C150.135 139.556 150.296 138.303 150.39 137.045C150.526 134.908 150.538 132.764 150.424 130.626C150.338 128.787 150.223 127.316 150.148 126.298C150.112 125.794 150.085 125.401 150.063 125.121C150.061 124.992 150.06 124.893 150.059 124.816L150.057 124.709C150.069 124.742 150.076 124.777 150.077 124.812C150.078 124.889 150.079 124.992 150.111 125.117C150.136 125.396 150.175 125.79 150.225 126.293C150.32 127.311 150.453 128.789 150.554 130.617C150.685 132.762 150.685 134.913 150.553 137.058C150.469 138.324 150.315 139.585 150.094 140.836C149.845 142.176 149.515 143.5 149.107 144.801C148.279 147.476 147.3 149.957 146.582 152.27C145.911 154.307 145.466 156.411 145.254 158.543C145.124 159.982 145.181 161.431 145.423 162.855C145.518 163.358 145.605 163.747 145.678 164.003C145.713 164.128 145.737 164.227 145.756 164.3C145.76 164.328 145.762 164.357 145.761 164.385Z" fill="#263238"/>
<path d="M157.026 163.338L135.49 163.609L134.946 159.49L156.974 159.213L157.026 163.338Z" fill="#455A64"/>
<path d="M137.797 163.109L140.642 175.442L152.344 175.295L154.708 162.896L137.797 163.109Z" fill="#455A64"/>
<path d="M157.022 163.338C157.023 163.393 152.292 163.486 146.453 163.541C140.615 163.596 135.875 163.6 135.874 163.545C135.873 163.49 140.609 163.394 146.451 163.339C152.293 163.284 157.025 163.279 157.022 163.338Z" fill="#455A64"/>
<path d="M153.607 168.655C152.998 168.21 152.34 167.835 151.647 167.535C150.892 167.225 150.091 167.045 149.276 167.002C148.276 166.993 147.283 167.179 146.356 167.55C145.416 167.931 144.455 168.256 143.478 168.525C142.656 168.677 141.814 168.688 140.988 168.556C140.431 168.477 139.889 168.315 139.38 168.076C139.244 168.006 139.113 167.926 138.988 167.838C138.906 167.776 138.861 167.744 138.869 167.736C138.876 167.729 139.059 167.844 139.416 168.002C139.929 168.221 140.47 168.37 141.024 168.445C141.833 168.55 142.653 168.524 143.454 168.367C144.419 168.087 145.369 167.76 146.302 167.385C147.254 167.003 148.273 166.818 149.299 166.84C150.699 166.934 152.042 167.428 153.166 168.263C153.287 168.354 153.403 168.452 153.513 168.557C153.573 168.619 153.607 168.655 153.607 168.655Z" fill="white"/>
<path d="M157.215 163.35C157.216 163.409 152.373 163.514 146.398 163.589C140.423 163.665 135.58 163.681 135.579 163.622C135.578 163.564 140.421 163.462 146.396 163.387C152.371 163.312 157.214 163.295 157.215 163.35Z" fill="#263238"/>
</svg>
