<svg width="151" height="59" viewBox="0 0 151 59" fill="none" xmlns="http://www.w3.org/2000/svg">
<rect width="150.068" height="58.9996" rx="29.4998" fill="white"/>
<path d="M48.7232 12V12.3963H48.2456V13.7911H47.7471V12.3963H47.2744V12H48.7232Z" fill="#0E4E66"/>
<path d="M40.366 46.9996H26.6336C23.8134 46.9996 21.1087 45.8793 19.1145 43.8851C17.1203 41.8909 16 39.1862 16 36.366V22.6336C16 19.8134 17.1203 17.1087 19.1145 15.1145C21.1087 13.1203 23.8134 12 26.6336 12L40.366 12C43.1862 12 45.8909 13.1203 47.8851 15.1145C49.8793 17.1087 50.9996 19.8134 50.9996 22.6336V36.366C50.9996 39.1862 49.8793 41.8909 47.8851 43.8851C45.8909 45.8793 43.1862 46.9996 40.366 46.9996Z" fill="#0E4E66"/>
<path d="M44.5761 20.931C44.8149 21.7859 44.8396 22.6864 44.648 23.553C44.4565 24.4197 44.0546 25.2259 43.4778 25.9006C43.3907 26.0111 43.2972 26.1165 43.1979 26.2162L41.5779 27.8362L38.5872 30.8269L30.2381 39.176C29.5588 39.8548 28.6375 40.236 27.6771 40.2356C26.7167 40.2352 25.7958 39.8533 25.117 39.1739C24.4381 38.4945 24.057 37.5733 24.0574 36.6129C24.0578 35.6525 24.4397 34.7316 25.119 34.0527L36.0949 23.076L37.9139 21.2567C38.083 21.0876 38.2837 20.9534 38.5047 20.8619C38.7256 20.7704 38.9624 20.7233 39.2015 20.7233C39.4407 20.7233 39.6775 20.7704 39.8984 20.8619C40.1194 20.9534 40.3201 21.0876 40.4892 21.2567C40.6583 21.4258 40.7924 21.6265 40.884 21.8474C40.9755 22.0684 41.0226 22.3052 41.0226 22.5443C41.0226 22.7835 40.9755 23.0203 40.884 23.2412C40.7924 23.4621 40.6583 23.6629 40.4892 23.832L35.886 28.4343C35.7366 28.5833 35.5342 28.667 35.3232 28.667C35.1122 28.667 34.9098 28.5833 34.7603 28.4343C34.6503 28.3307 34.5041 28.274 34.353 28.2763C34.2018 28.2786 34.0574 28.3396 33.9505 28.4466C33.8436 28.5535 33.7825 28.6978 33.7803 28.849C33.778 29.0002 33.8347 29.1463 33.9383 29.2564C34.2969 29.6137 34.7798 29.8183 35.2859 29.8274C35.792 29.8366 36.282 29.6495 36.6532 29.3054C36.6699 29.2924 36.6858 29.2786 36.701 29.2639L41.31 24.6544C41.8694 24.0951 42.1837 23.3365 42.1838 22.5454C42.1839 21.7544 41.8697 20.9957 41.3104 20.4363C40.7511 19.8769 39.9925 19.5625 39.2014 19.5625C38.4104 19.5624 37.6517 19.8766 37.0923 20.4359L35.2742 22.2552L24.2974 33.2307C23.4004 34.1277 22.8965 35.3443 22.8965 36.6129C22.8965 37.8815 23.4004 39.0981 24.2974 39.9951C25.1945 40.8921 26.4111 41.396 27.6796 41.396C28.9482 41.396 30.1648 40.8921 31.0618 39.9951L39.4109 31.646L42.4016 28.6553L44.0315 27.0254C44.8222 26.2344 45.3099 25.1908 45.4095 24.0768C45.509 22.9628 45.214 21.8496 44.5761 20.931Z" fill="#8ACDD1"/>
<path d="M23.5228 33.1539C23.61 33.0433 23.7035 32.9379 23.8028 32.8382L25.672 30.969L28.4106 28.2296L36.8144 19.8265C37.1507 19.4903 37.55 19.2236 37.9893 19.0416C38.4287 18.8597 38.8996 18.7661 39.3751 18.7661C39.8507 18.7661 40.3215 18.8598 40.7609 19.0419C41.2002 19.2239 41.5994 19.4906 41.9356 19.8269C42.2718 20.1632 42.5386 20.5624 42.7205 21.0018C42.9024 21.4412 42.9961 21.9121 42.996 22.3876C42.996 22.8631 42.9023 23.334 42.7203 23.7734C42.5383 24.2127 42.2715 24.6119 41.9352 24.9481L28.9742 37.9078C28.6452 38.2125 28.211 38.3779 27.7626 38.3693C27.3143 38.3607 26.8867 38.1788 26.5696 37.8617C26.2525 37.5446 26.0706 37.1171 26.062 36.6687C26.0534 36.2204 26.2188 35.7861 26.5235 35.4571L31.6858 30.2915C31.8352 30.1424 32.0376 30.0587 32.2486 30.0587C32.4597 30.0587 32.6621 30.1424 32.8115 30.2915C32.9215 30.3951 33.0677 30.4518 33.2188 30.4496C33.37 30.4473 33.5144 30.3862 33.6213 30.2793C33.7282 30.1724 33.7893 30.028 33.7915 29.8769C33.7938 29.7257 33.7371 29.5796 33.6335 29.4695C33.2817 29.119 32.81 28.9151 32.3136 28.8991C31.8173 28.8831 31.3334 29.056 30.9597 29.3831C30.9374 29.3994 30.9163 29.4173 30.8966 29.4367L25.6998 34.6334C25.1674 35.1789 24.8715 35.9122 24.8761 36.6744C24.8807 37.4366 25.1855 38.1662 25.7245 38.7052C26.2635 39.2441 26.9931 39.549 27.7553 39.5536C28.5175 39.5582 29.2508 39.2622 29.7962 38.7299L42.756 25.7701C43.6532 24.8733 44.1573 23.6568 44.1576 22.3882C44.1578 21.1196 43.6541 19.9029 42.7572 19.0057C42.3132 18.5615 41.7859 18.2091 41.2057 17.9686C40.6254 17.7281 40.0034 17.6043 39.3753 17.6042C38.1067 17.6039 36.89 18.1076 35.9928 19.0045L27.5885 27.4084L24.8508 30.1461L22.9691 32.0278C22.1784 32.8188 21.6907 33.8624 21.5912 34.9764C21.4917 36.0904 21.7866 37.2039 22.4246 38.1226C22.1859 37.2678 22.1612 36.3674 22.3527 35.5008C22.5443 34.6342 22.9461 33.828 23.5228 33.1534" fill="#8ACDD1"/>
<path d="M50.9998 12V13.7911H50.5013V12.8029L50.1636 13.7911H49.7482L49.4076 12.7942V13.7911H48.9092V12H49.5115L49.9613 13.1631L50.4 12H50.9998Z" fill="#0E4E66"/>
<path d="M67.8197 33.1064L68.4367 34.6435C68.4502 34.6778 68.4551 34.7149 68.4511 34.7515C68.447 34.7881 68.4341 34.8232 68.4134 34.8538C68.3927 34.8843 68.3649 34.9093 68.3324 34.9267C68.2999 34.9441 68.2636 34.9533 68.2267 34.9535H63.2267C63.1898 34.9534 63.1534 34.9443 63.1207 34.927C63.0881 34.9097 63.0601 34.8847 63.0393 34.8542C63.0186 34.8236 63.0055 34.7885 63.0014 34.7517C62.9973 34.715 63.0022 34.6779 63.0157 34.6435L63.6327 33.1064V21.4785L63.0157 19.9415C63.0022 19.9071 62.9973 19.8699 63.0014 19.8332C63.0055 19.7964 63.0186 19.7613 63.0393 19.7307C63.0601 19.7002 63.0881 19.6752 63.1207 19.6579C63.1534 19.6406 63.1898 19.6315 63.2267 19.6315H70.7017C79.7107 19.6315 79.7107 30.8654 70.7017 30.8654H67.8197V33.1064ZM67.8197 28.3174H69.6787C74.3287 28.3174 74.3287 22.1794 69.6787 22.1794H67.8197V28.3174Z" fill="#0E4E66"/>
<path d="M90.4275 34.6515C90.44 34.6849 90.4443 34.7209 90.44 34.7563C90.4357 34.7918 90.4228 34.8257 90.4026 34.8551C90.3824 34.8846 90.3554 34.9087 90.3238 34.9255C90.2923 34.9422 90.2572 34.9512 90.2215 34.9515H85.2415C85.1827 34.9512 85.1263 34.9277 85.0848 34.8861C85.0432 34.8446 85.0197 34.7883 85.0195 34.7295V34.0505C83.9504 34.8403 82.6482 35.2503 81.3195 35.2155C80.5743 35.28 79.8269 35.1193 79.1742 34.7541C78.5214 34.389 77.9934 33.8362 77.6585 33.1675C77.4042 32.4458 77.3646 31.6659 77.5446 30.9222C77.7246 30.1785 78.1163 29.503 78.6725 28.9775C79.5183 28.2047 80.5099 27.6086 81.5892 27.2241C82.6684 26.8396 83.8135 26.6745 84.9575 26.7385H85.0135C85.0214 26.5348 84.9814 26.3321 84.8967 26.1468C84.8119 25.9614 84.6847 25.7986 84.5255 25.6715C83.0775 24.7645 80.7795 26.0905 79.5715 26.9505C79.5452 26.9695 79.5151 26.9824 79.4833 26.9885C79.4514 26.9945 79.4187 26.9935 79.3873 26.9855C79.3559 26.9775 79.3266 26.9627 79.3016 26.9421C79.2766 26.9215 79.2564 26.8957 79.2425 26.8665L78.2825 24.8655C78.2696 24.8385 78.2624 24.8092 78.2611 24.7794C78.2598 24.7495 78.2645 24.7198 78.275 24.6918C78.2854 24.6638 78.3014 24.6382 78.3219 24.6165C78.3424 24.5948 78.3671 24.5774 78.3945 24.5655C81.6165 23.1775 89.2035 22.8095 89.2035 27.8585V33.1185L90.4275 34.6515ZM85.0195 28.6465C84.1363 28.7302 83.3198 29.1527 82.7415 29.8255C82.2231 30.3994 81.934 31.1441 81.9295 31.9175C81.9275 32.0679 81.9608 32.2166 82.0266 32.3519C82.0924 32.4872 82.1889 32.6051 82.3085 32.6965C82.5701 32.8256 82.8626 32.8791 83.1531 32.851C83.4435 32.8229 83.7204 32.7143 83.9525 32.5375C84.2908 32.3107 84.5663 32.002 84.753 31.64C84.9398 31.278 85.0318 30.8746 85.0205 30.4675L85.0195 28.6465Z" fill="#0E4E66"/>
<path d="M96.9687 31.3335L98.1267 24.1845C98.1349 24.1323 98.1614 24.0847 98.2016 24.0504C98.2418 24.0161 98.2929 23.9973 98.3457 23.9975H101.984C102.02 23.998 102.056 24.0075 102.089 24.0254C102.121 24.0432 102.148 24.0687 102.168 24.0996C102.188 24.1306 102.199 24.1659 102.202 24.2025C102.205 24.2392 102.199 24.2759 102.184 24.3095L96.5467 37.1965C95.8307 38.8345 94.7557 39.4205 92.8337 39.3645C91.9194 39.2958 91.0261 39.0567 90.1997 38.6595C90.1624 38.632 90.1347 38.5934 90.1206 38.5492C90.1066 38.505 90.107 38.4574 90.1217 38.4135L90.9857 36.3845L91.1287 35.9475C91.1394 35.9131 91.1585 35.8819 91.1842 35.8567C91.21 35.8315 91.2416 35.8131 91.2762 35.8032C91.3108 35.7932 91.3474 35.7921 91.3826 35.7998C91.4178 35.8076 91.4505 35.8239 91.4777 35.8475C91.9977 36.3635 93.7217 37.5475 94.5317 36.8935C95.2067 36.3445 94.7047 35.4795 94.4407 34.8585C93.6407 32.9675 91.9987 29.5695 91.6537 28.8245L89.5687 24.3185C89.553 24.2847 89.5459 24.2475 89.5483 24.2104C89.5507 24.1732 89.5623 24.1372 89.5823 24.1057C89.6022 24.0743 89.6297 24.0483 89.6623 24.0302C89.6949 24.0122 89.7315 24.0027 89.7687 24.0025H94.0867C94.1767 24.0025 94.2947 24.0465 94.2867 24.1365L94.2347 25.0595L96.9687 31.3335Z" fill="#0E4E66"/>
<path d="M103.309 22.4725L102.567 21.2415C102.55 21.2127 102.539 21.1804 102.536 21.1469C102.533 21.1134 102.538 21.0795 102.549 21.048C102.561 21.0165 102.58 20.9881 102.605 20.965C102.629 20.9419 102.658 20.9246 102.69 20.9145L103.465 20.6705H103.473L107.208 19.6515C107.241 19.6424 107.276 19.641 107.31 19.6475C107.343 19.654 107.375 19.6682 107.402 19.6889C107.429 19.7096 107.451 19.7363 107.466 19.7669C107.482 19.7976 107.489 19.8313 107.489 19.8655V24.9825C108.366 24.2028 109.492 23.7607 110.664 23.7355C111.177 23.7081 111.691 23.7556 112.189 23.8765C113.346 24.1549 114.379 24.8069 115.128 25.7315C115.949 26.7658 116.386 28.0524 116.365 29.3725C116.35 30.6454 115.93 31.8805 115.167 32.8995C114.404 33.9184 113.337 34.6685 112.119 35.0415C111.662 35.1696 111.188 35.2299 110.712 35.2205C109.548 35.1533 108.429 34.75 107.489 34.0595V34.7345C107.489 34.7933 107.466 34.8496 107.424 34.8912C107.383 34.9327 107.326 34.9562 107.267 34.9565H102.899C102.864 34.9562 102.829 34.9473 102.797 34.9305C102.766 34.9137 102.738 34.8896 102.718 34.8601C102.698 34.8307 102.685 34.7968 102.681 34.7614C102.677 34.7259 102.681 34.6899 102.693 34.6565L103.31 33.1185L103.309 22.4725ZM111.89 29.2175C111.725 28.413 111.363 27.662 110.836 27.0315C110.656 26.8071 110.432 26.6221 110.178 26.4879C109.923 26.3538 109.644 26.2733 109.357 26.2515C109.237 26.2503 109.117 26.2637 108.999 26.2915C108.74 26.3515 108.5 26.4749 108.299 26.6505C107.386 27.4505 107.42 29.1175 107.663 30.1965C107.906 31.2755 108.594 32.8085 109.763 33.1325C110.03 33.2054 110.31 33.2088 110.578 33.1425C110.69 33.1158 110.797 33.0765 110.899 33.0255C111.151 32.8792 111.369 32.6827 111.541 32.4484C111.713 32.2141 111.835 31.9469 111.899 31.6635C112.098 30.8602 112.095 30.0201 111.889 29.2185" fill="#0E4E66"/>
<path d="M121.592 33.1135L122.209 34.6515C122.221 34.6849 122.226 34.7209 122.221 34.7563C122.217 34.7918 122.204 34.8257 122.184 34.8551C122.164 34.8846 122.137 34.9087 122.105 34.9255C122.074 34.9423 122.039 34.9512 122.003 34.9515H117.003C116.967 34.9512 116.932 34.9423 116.901 34.9255C116.869 34.9087 116.842 34.8846 116.822 34.8551C116.802 34.8257 116.789 34.7918 116.784 34.7563C116.78 34.7209 116.784 34.6849 116.797 34.6515L117.414 33.1135V22.4715L116.672 21.2405C116.654 21.2117 116.644 21.1794 116.641 21.1458C116.637 21.1123 116.642 21.0786 116.654 21.0471C116.666 21.0156 116.685 20.9872 116.709 20.964C116.733 20.9409 116.763 20.9236 116.795 20.9135L117.57 20.6695H117.579L121.314 19.6505C121.347 19.6411 121.382 19.6396 121.415 19.6462C121.449 19.6528 121.481 19.6673 121.508 19.6885C121.535 19.7089 121.557 19.7354 121.573 19.766C121.588 19.7966 121.595 19.8303 121.595 19.8645L121.592 33.1135Z" fill="#0E4E66"/>
<path d="M127.036 30.9575C127.318 31.6381 127.781 32.2288 128.374 32.6662C128.967 33.1035 129.668 33.3709 130.401 33.4395C130.652 33.4749 130.905 33.4926 131.158 33.4925C132.017 33.499 132.862 33.2851 133.614 32.8715C133.66 32.8461 133.713 32.8374 133.764 32.847C133.815 32.8566 133.861 32.8838 133.894 32.9239C133.927 32.964 133.945 33.0145 133.945 33.0665C133.944 33.1185 133.926 33.1687 133.892 33.2085C133.245 33.8927 132.456 34.4272 131.58 34.7746C130.705 35.1219 129.764 35.2738 128.823 35.2195C125.315 35.2195 122.487 33.1625 122.487 29.4655C122.487 25.7685 125.298 23.7325 128.794 23.7325C132.037 23.7325 133.859 25.2465 134.067 28.5055C134.071 28.555 134.058 28.6043 134.03 28.6453C134.002 28.6863 133.961 28.7167 133.913 28.7314L133.144 28.9745L130.718 29.7434L127.018 30.9135L127.032 30.9575M130.14 28.2004C130.159 27.8383 130.122 27.4754 130.03 27.1245C129.776 26.1345 129.023 25.0014 127.844 25.2784C127.793 25.2905 127.742 25.3062 127.693 25.3254C127.425 25.4767 127.194 25.6855 127.016 25.9367C126.839 26.1879 126.719 26.4754 126.665 26.7784C126.468 27.6135 126.441 28.4797 126.585 29.3254L130.14 28.2004Z" fill="#0E4E66"/>
</svg>
