<svg width="13" height="13" viewBox="0 0 13 13" fill="none" xmlns="http://www.w3.org/2000/svg">
<g clip-path="url(#clip0_132_744)">
<path d="M6.63305 1.90135C4.58699 1.92708 2.9492 3.60658 2.97493 5.65264L2.97832 5.92262C3.15384 7.95058 4.85923 9.56176 6.75564 11.6506C8.68027 9.42121 10.4116 7.7293 10.3843 5.55947C10.3586 3.51341 8.67912 1.87562 6.63305 1.90135ZM9.17947 5.57712C9.19683 6.95772 8.09169 8.091 6.7111 8.10836C5.33051 8.12572 4.19723 7.02058 4.17987 5.63999C4.16251 4.2594 5.26764 3.12612 6.64823 3.10876C8.02883 3.0914 9.16211 4.19653 9.17947 5.57712ZM8.15487 4.61348C8.15842 4.89576 7.93247 5.12744 7.65022 5.13099C7.36796 5.13454 7.13625 4.90859 7.1327 4.62633C7.12916 4.34408 7.35511 4.11237 7.63736 4.10882C7.91961 4.10527 8.15132 4.33123 8.15487 4.61348Z" stroke="#F6EEEE" stroke-linecap="round" stroke-linejoin="round"/>
</g>
<defs>
<clipPath id="clip0_132_744">
<rect width="12" height="12" fill="white" transform="translate(0.619385 0.851868) rotate(-0.720436)"/>
</clipPath>
</defs>
</svg>
