<svg width="21" height="21" viewBox="0 0 21 21" fill="none" xmlns="http://www.w3.org/2000/svg">
<path d="M20.2039 3.28526C20.4097 4.02221 20.431 4.79849 20.2659 5.54562C20.1008 6.29275 19.7543 6.98776 19.2571 7.56934C19.182 7.66464 19.1014 7.7555 19.0158 7.84148L17.6193 9.238L15.0411 11.8162L7.84364 19.0136C7.25796 19.5988 6.46381 19.9274 5.63587 19.9271C4.80794 19.9267 4.01405 19.5975 3.42885 19.0118C2.84366 18.4262 2.51508 17.632 2.51542 16.8041C2.51575 15.9761 2.84497 15.1822 3.43064 14.597L12.8926 5.13439L14.4606 3.56599C14.6064 3.42022 14.7795 3.30459 14.9699 3.22569C15.1604 3.1468 15.3645 3.1062 15.5707 3.1062C15.7768 3.1062 15.981 3.1468 16.1714 3.22569C16.3619 3.30459 16.5349 3.42022 16.6807 3.56599C16.8265 3.71177 16.9421 3.88483 17.021 4.07529C17.0999 4.26575 17.1405 4.46989 17.1405 4.67605C17.1405 4.8822 17.0999 5.08634 17.021 5.2768C16.9421 5.46727 16.8265 5.64032 16.6807 5.7861L12.7125 9.75364C12.5837 9.88208 12.4092 9.95421 12.2273 9.95421C12.0454 9.95421 11.8709 9.88208 11.7421 9.75364C11.6472 9.66429 11.5212 9.61542 11.3909 9.61738C11.2605 9.61935 11.1361 9.67199 11.0439 9.76416C10.9518 9.85632 10.8991 9.98076 10.8972 10.1111C10.8952 10.2414 10.9441 10.3674 11.0334 10.4623C11.3425 10.7703 11.7588 10.9467 12.1951 10.9546C12.6314 10.9624 13.0538 10.8012 13.3738 10.5045C13.3882 10.4934 13.402 10.4814 13.415 10.4687L17.3883 6.4951C17.8705 6.01294 18.1415 5.35896 18.1416 4.67702C18.1416 3.99507 17.8708 3.34104 17.3886 2.85878C16.9065 2.37653 16.2525 2.10557 15.5706 2.1055C14.8886 2.10543 14.2346 2.37627 13.7523 2.85843L12.185 4.42682L2.72236 13.8884C1.94908 14.6617 1.51465 15.7105 1.51465 16.8041C1.51465 17.8977 1.94908 18.9465 2.72236 19.7198C3.49565 20.493 4.54445 20.9275 5.63804 20.9275C6.73163 20.9275 7.78043 20.493 8.55371 19.7198L15.7511 12.5223L18.3293 9.94414L19.7344 8.53903C20.4161 7.85713 20.8365 6.95745 20.9223 5.99712C21.0081 5.03679 20.7538 4.07719 20.2039 3.28526Z" fill="#062F3F"/>
<path d="M2.05456 13.8221C2.12968 13.7269 2.21027 13.636 2.2959 13.55L3.90727 11.9386L6.2681 9.5771L13.5128 2.33312C13.8027 2.04326 14.1469 1.81334 14.5256 1.65649C14.9044 1.49964 15.3103 1.41893 15.7203 1.41896C16.1302 1.419 16.5361 1.49977 16.9149 1.65669C17.2936 1.8136 17.6377 2.04357 17.9276 2.33347C18.2174 2.62338 18.4473 2.96753 18.6042 3.34629C18.761 3.72504 18.8418 4.13099 18.8417 4.54094C18.8417 4.95089 18.7609 5.35682 18.604 5.73555C18.4471 6.11428 18.2171 6.4584 17.9272 6.74825L6.75401 17.9204C6.47039 18.1831 6.09604 18.3256 5.70954 18.3182C5.32304 18.3108 4.95444 18.154 4.68109 17.8806C4.40774 17.6073 4.2509 17.2387 4.24349 16.8522C4.23608 16.4657 4.37867 16.0913 4.64133 15.8077L9.09156 11.3546C9.22033 11.2261 9.39483 11.1539 9.57677 11.1539C9.7587 11.1539 9.9332 11.2261 10.062 11.3546C10.1569 11.444 10.2828 11.4928 10.4132 11.4909C10.5435 11.4889 10.6679 11.4363 10.7601 11.3441C10.8523 11.2519 10.9049 11.1275 10.9069 10.9972C10.9088 10.8668 10.86 10.7409 10.7706 10.646C10.4673 10.3438 10.0607 10.1681 9.63281 10.1543C9.20494 10.1404 8.78778 10.2896 8.46564 10.5715C8.44643 10.5856 8.42824 10.601 8.41121 10.6177L3.93126 15.0976C3.47231 15.5679 3.21718 16.2 3.22116 16.8571C3.22514 17.5141 3.48793 18.1431 3.95254 18.6077C4.41716 19.0724 5.04617 19.3351 5.70323 19.3391C6.36028 19.3431 6.99244 19.088 7.46266 18.629L18.6348 7.4569C19.4082 6.68375 19.8428 5.63504 19.843 4.54145C19.8432 3.44785 19.409 2.39897 18.6359 1.62555C18.253 1.24258 17.7985 0.938774 17.2983 0.731463C16.7981 0.524151 16.2619 0.417397 15.7204 0.417297C14.6268 0.417096 13.5779 0.85133 12.8045 1.62447L5.55945 8.86917L3.19934 11.2293L1.57723 12.8514C0.895605 13.5333 0.475177 14.433 0.389374 15.3933C0.30357 16.3536 0.557844 17.3136 1.10779 18.1055C0.902025 17.3686 0.880762 16.5924 1.04587 15.8453C1.21098 15.0983 1.5574 14.4033 2.05456 13.8218" fill="#062F3F"/>
</svg>
