<svg width="13" height="13" viewBox="0 0 13 13" fill="none" xmlns="http://www.w3.org/2000/svg">
<path d="M5.55137 3.44106L5.88316 4.0184C6.18258 4.53941 6.0737 5.22921 5.61828 5.69621C5.61828 5.69621 5.06595 6.2627 6.09294 7.26422C7.11961 8.26539 7.67238 7.69929 7.67238 7.69929C8.1278 7.23228 8.81461 7.10608 9.343 7.39231L9.92849 7.70948C10.7264 8.14168 10.8339 9.25161 10.1463 9.95682C9.73306 10.3805 9.22449 10.7126 8.65806 10.7412C7.70454 10.7894 6.08138 10.5683 4.43577 8.96359C2.79018 7.35885 2.52837 5.74178 2.55254 4.78733C2.5669 4.22036 2.88606 3.70362 3.29927 3.27989C3.98694 2.57472 5.09923 2.65432 5.55137 3.44106Z" fill="#E8EAF2"/>
</svg>
