<svg width="16" height="16" viewBox="0 0 16 16" fill="none" xmlns="http://www.w3.org/2000/svg">
<g clip-path="url(#clip0_130_627)">
<path d="M7.24327 14.6481C8.04424 15.4354 8.77862 15.4199 9.55965 14.619L10.5143 13.6464C10.6135 13.551 10.7009 13.5122 10.8328 13.5105L12.1887 13.4935C13.3123 13.4794 13.8269 12.9581 13.8127 11.8281L13.7957 10.4722C13.794 10.3404 13.8305 10.252 13.9234 10.1504L14.8654 9.17169C15.659 8.37064 15.6434 7.63626 14.8363 6.85534L13.87 5.90061C13.7747 5.80762 13.7358 5.71395 13.7342 5.58841L13.7171 4.2262C13.7031 3.10882 13.1817 2.588 12.0517 2.60221L10.6958 2.61926C10.564 2.62092 10.4757 2.59063 10.3741 2.49772L9.39531 1.54945C8.59431 0.762152 7.85993 0.777682 7.07893 1.57857L6.12428 2.55116C6.03132 2.64652 5.93754 2.67909 5.81198 2.68067L4.44979 2.6978C3.32614 2.71193 2.81159 3.23324 2.8258 4.36316L2.84293 5.72537C2.84451 5.8509 2.8143 5.94544 2.72134 6.0408L1.77304 7.0196C0.98577 7.82057 1.00127 8.55495 1.80217 9.33595L2.77478 10.2906C2.87019 10.3899 2.90268 10.4773 2.90434 10.6092L2.92139 11.9651C2.93552 13.0887 3.46309 13.6032 4.58675 13.5891L5.94893 13.572C6.07449 13.5704 6.16914 13.6069 6.26447 13.6998L7.24327 14.6481ZM7.30124 11.2696C7.10666 11.2721 6.98031 11.2109 6.88482 11.1053L4.75886 8.80277C4.66972 8.70346 4.61793 8.57854 4.61627 8.44671C4.61256 8.15166 4.8358 7.92911 5.15594 7.92508C5.32543 7.92295 5.45167 7.97789 5.56617 8.09573L7.2528 9.9141L10.4285 5.32233C10.5517 5.1387 10.6763 5.06178 10.896 5.05901C11.2036 5.05515 11.4262 5.27838 11.4299 5.57343C11.4312 5.68014 11.3888 5.80625 11.3211 5.90753L7.72565 11.0696C7.633 11.1901 7.48959 11.2673 7.30124 11.2696Z" fill="#39378B"/>
</g>
<defs>
<clipPath id="clip0_130_627">
<rect width="15" height="15" fill="white" transform="translate(0.72876 0.693634) rotate(-0.720436)"/>
</clipPath>
</defs>
</svg>
