<svg width="11" height="11" viewBox="0 0 11 11" fill="none" xmlns="http://www.w3.org/2000/svg">
<path d="M5.49053 0.967313L6.77305 4.75189L10.7687 4.70165L7.56568 7.09089L8.8482 10.8755L5.5861 8.56753L2.38307 10.9568L3.57002 7.14114L0.30792 4.83319L4.30359 4.78295L5.49053 0.967313Z" fill="#ED892D"/>
</svg>
<svg width="11" height="11" viewBox="0 0 11 11" fill="none" xmlns="http://www.w3.org/2000/svg">
<path d="M5.49053 0.967313L6.77305 4.75189L10.7687 4.70165L7.56568 7.09089L8.8482 10.8755L5.5861 8.56753L2.38307 10.9568L3.57002 7.14114L0.30792 4.83319L4.30359 4.78295L5.49053 0.967313Z" fill="#ED892D"/>
</svg>
<svg width="11" height="11" viewBox="0 0 11 11" fill="none" xmlns="http://www.w3.org/2000/svg">
<path d="M5.49053 0.967313L6.77305 4.75189L10.7687 4.70165L7.56568 7.09089L8.8482 10.8755L5.5861 8.56753L2.38307 10.9568L3.57002 7.14114L0.30792 4.83319L4.30359 4.78295L5.49053 0.967313Z" fill="#ED892D"/>
</svg>
<svg width="11" height="11" viewBox="0 0 11 11" fill="none" xmlns="http://www.w3.org/2000/svg">
<path d="M5.49053 0.967313L6.77305 4.75189L10.7687 4.70165L7.56568 7.09089L8.8482 10.8755L5.5861 8.56753L2.38307 10.9568L3.57002 7.14114L0.30792 4.83319L4.30359 4.78295L5.49053 0.967313Z" fill="#ED892D"/>
</svg>
