<svg width="41" height="33" viewBox="0 0 41 33" fill="none" xmlns="http://www.w3.org/2000/svg">
<path d="M23.4191 2.80193L24.8641 0.517953C35.1448 7.24228 40.9131 15.497 40.9993 22.3496C41.0826 28.9755 36.2501 32.1522 32.1162 32.2042C26.9056 32.2697 23.1692 27.8975 23.1108 23.2542C23.0616 19.3468 25.5116 15.9735 28.8379 14.6845C29.796 14.3317 30.6986 14.0376 30.678 12.3956C30.6516 10.3005 29.0828 7.20612 23.4191 2.80193ZM0.93505 3.08466L2.38001 0.800682C12.5483 7.52642 18.429 15.7798 18.5152 22.6323C18.5985 29.2583 13.6537 32.4364 9.51969 32.4884C4.25298 32.5546 0.45853 28.1831 0.400143 23.5398C0.351008 19.6324 2.85716 16.2583 6.29764 14.968C7.25572 14.6152 8.10216 14.3217 8.08151 12.6797C8.05516 10.5847 6.43018 7.48916 0.936839 3.08282L0.93505 3.08466Z" fill="#7C76CB" fill-opacity="0.35"/>
</svg>
