<svg width="42" height="33" viewBox="0 0 42 33" fill="none" xmlns="http://www.w3.org/2000/svg">
<path d="M17.8875 3.28381L16.3856 1.03689C6.27725 8.0176 0.71833 16.4148 0.804498 23.2673C0.887817 29.8933 5.79861 32.9475 9.93259 32.8955C15.1431 32.83 18.7685 28.3651 18.7101 23.7219C18.6609 19.8145 16.1269 16.5038 12.7693 15.2989C11.8026 14.9703 10.8929 14.699 10.8722 13.057C10.8459 10.9619 12.3364 7.82903 17.8875 3.28381ZM40.3716 3.00108L38.8697 0.754158C28.8737 7.73346 23.2024 16.1321 23.2886 22.9846C23.3719 29.6106 28.3951 32.6633 32.5291 32.6113C37.7958 32.5451 41.4791 28.0796 41.4207 23.4363C41.3716 19.5289 38.7814 16.2189 35.3095 15.0155C34.3429 14.6869 33.4893 14.4148 33.4687 12.7728C33.4423 10.6777 34.989 7.54237 40.3698 2.99929L40.3716 3.00108Z" fill="#7C76CB" fill-opacity="0.35"/>
</svg>
